<?xml version="1.0" encoding="UTF-8"?>
<svg id="jackal2_xA0_Image" xmlns="http://www.w3.org/2000/svg" version="1.1" viewBox="0 0 512 512">
  <!-- Generator: Adobe Illustrator 30.1.0, SVG Export Plug-In . SVG Version: 2.1.1 Build 136)  -->
  <defs>
    <style>
      .st0 {
        fill: #fff;
      }
    </style>
  </defs>
  <path class="st0" d="M407.28,106.92l-.05-69.98h-85.45s-.04,70.05-.04,70.05l85.54-.07ZM258.13,296.77l46.26-45.72,165.43-.11,8.58,5.93,9.98-6.51,10.63,2.42-2.74-9.86-28.38-20.93H99.78c.49-6.42.11-11.02-1.1-15.45l1.42-2.89c.33-.67-1.61-2.55-1.62-3.44-.15-10.59-7.81-17.35-10.15-21.52l-27.99-50.05-19.11-33.84c-7.44-13.17-15.41-25.16-22.7-38.51l-8.67-15.87c-.55-1.01-3.4-1.82-4.21-1.2-.65.5-1.13,3.12-.47,4.25,12.3,21.17,23.25,46.87,35.1,69.09l27.92,52.32,11.7,22.63,3.85,7.91c.56,1.16,1.19,2.97,1.3,3.91s-1.67,2.79-1.66,3.7l.08,4.76c.02,1.09-2.74,2.4-3.36,3.37l-.15,10.79-34.48.09-25.33,25.78,13.17,9.01c7.19,4.92,7.33-11.61,24.91-5.87l152.4.03,47.52,45.75ZM197.91,165.04v-70.1s-138.75.01-138.75.01l.06,22.71,26.1,47.4,112.59-.02ZM414.96,216.09l-.02-104.19h-206.87s0,104.2,0,104.2h206.89ZM436.29,195.43l-.04-61.93-16.49.05.04,62.01,16.49-.13ZM482.58,194.77l4.4,1.13.03-61.97-47.02,11.6v38.83s42.59,10.42,42.59,10.42ZM76.12,189.12l-10.28-19.96c-2.14-.26-5.29-.1-6.75.46l.02,48.33,16.4.18.37-6.38c.49-8.48,9.55-4.55.24-22.62ZM104.4,218.06h93.54s-.14-49.13-.14-49.13h-109.96c2.85,8.93,10.57,13.42,13.2,24l2.14,8.65c1.21,4.89.47,10.99,1.22,16.49ZM371.37,279.54c33.49-3.31,60.41,1.68,86.86,23.18,1.73.39,5.67-1.83,5.69-3.7l.14-19.02,7.69.11,29.28,20.53c-6.29-10.41-12-18.98-18.74-28.16-2.55-3.46-6.95-6.35-10.43-9.39l-160.8-.24-49.8,49.45c-2.3,1.05-5.07.97-7.03-.47l-48.13-48.66-161.64-.18c-3.61,3.92-7.91,6.94-10.55,10.82-5.85,8.6-10.73,16.75-15.83,26.04l28.76-19.13c1.69-1.12,6.55-.81,8.1-.39-.06,7.47-.21,12.8.49,19.53.22,2.08,4.72.45,5.98-.52,24.84-19.05,51.62-22.81,82.23-19.8,45.99,4.51,86.73,45.34,91.92,91.81,1.15,10.3.09,20.86.57,31.36l42.85.32c.34-10.73-.67-21.3.49-31.68,5.17-46.45,45.9-87.26,91.91-91.81ZM117,286.57c-57.29,5.9-103.57,63.32-97.38,119.21,6.2,55.92,56.45,96.44,112.38,90.68,56.23-5.79,103.27-62.17,97.47-118.48-5.73-55.61-55.48-97.28-112.46-91.41ZM378,286.57c-57.29,5.9-97.57,57.32-91.38,113.21s62.45,102.44,118.38,96.68c56.23-5.79,97.27-56.18,91.47-112.49-5.73-55.61-61.48-103.28-118.47-97.41Z"/>
  <path d="M384,292.57c56.98-5.87,106.73,35.8,112.47,91.41,5.8,56.31-35.24,106.69-91.47,112.49-55.93,5.76-106.18-34.76-112.38-90.68s34.09-107.31,91.38-113.21ZM390.05,369.09l-.02-26.16c0-1.33-1.87-4.17-3.15-4.54-1.1-.31-3.3.02-5.04.41-15.75,3.61-28.93,14.31-37.24,27.83,2.52,5.46,7.32,5.81,12.07,7.28l19.93,6.14c4.93-6.62,13.43-5.35,13.43-10.97ZM413.56,381.42l25.98-8.73c1.28-.43,3.37-2.85,4.32-3.93-7.67-13.42-19.29-23.55-33.95-28.88-2.02-.73-5.12-1.1-6.52-.19-1.19.78-2.51,3.57-2.5,5.13l.07,26.94,5.9,4.53,6.7,5.13ZM389.91,380.55c-8.35,2.42-11.66,11.08-9.15,18.28s10.14,10.73,17.34,8.65c7.52-2.17,11.6-10.04,9.41-17.59-2.05-7.04-9.48-11.7-17.59-9.34ZM368.37,416.73l7.15-10.18c-4.4-9.64.27-12.52-8.72-15.45l-26.44-8.61c-2.16-.43-3.35,4.35-3.54,6.4-1.39,15.65,3.16,29.45,13.27,41.07l4.61,5.3,13.67-18.52ZM416.01,411.97c5.35,7.44,10.52,14.57,16.77,21.56,13.3-11.33,18.57-26.81,17.52-43.61-.12-1.97-1.58-7.11-3.8-6.5l-25.74,8.25c-8.82,2.83-3.33,3.93-8.41,15.2l3.67,5.09ZM420.91,442.43l-7.99-11.37c-4.03-5.73-7.92-10.86-13.19-16.06l-10.92.17c-2.25.03-4.82,3.52-6.01,5.4-4.38,6.97-10.88,15.3-16.61,22.09,8.99,11.3,45.59,11.63,54.72-.23Z"/>
  <path d="M111,292.57c56.99-5.87,106.73,35.8,112.46,91.41,5.81,56.31-35.23,106.69-91.47,112.48-55.93,5.76-106.18-34.76-112.38-90.68-6.19-55.9,34.09-107.31,91.38-113.21ZM117.05,369.09l-.02-26.16c0-1.33-1.87-4.17-3.15-4.53-1.1-.31-3.3.02-5.04.41-15.75,3.61-28.94,14.31-37.24,27.82,2.5,5.47,7.35,5.81,12.06,7.27l19.99,6.19c4.74-6.66,13.39-5.34,13.39-11ZM140.56,381.42l25.98-8.73c1.28-.43,3.37-2.85,4.32-3.93-7.67-13.41-19.29-23.55-33.96-28.87-2.01-.73-5.13-1.1-6.52-.19-1.19.78-2.51,3.57-2.5,5.13l.07,26.94,5.9,4.53,6.7,5.13ZM116.91,380.55c-8.35,2.42-11.66,11.08-9.15,18.28s10.14,10.73,17.34,8.65,11.6-10.04,9.41-17.59c-2.05-7.04-9.48-11.7-17.59-9.34ZM95.37,416.73l7.15-10.18c-4.41-9.64.27-12.52-8.72-15.45l-26.44-8.61c-2.16-.43-3.35,4.35-3.54,6.4-1.39,15.65,3.16,29.45,13.26,41.07l4.61,5.3,13.68-18.53ZM143.01,411.97c5.35,7.44,10.51,14.57,16.77,21.56,13.3-11.33,18.57-26.81,17.52-43.61-.12-1.96-1.58-7.12-3.8-6.49l-25.74,8.25c-8.82,2.83-3.33,3.94-8.41,15.2l3.67,5.09ZM147.91,442.43l-7.99-11.37c-4.03-5.73-7.92-10.86-13.19-16.06l-10.92.17c-2.25.03-4.82,3.52-6.01,5.4-4.37,6.97-10.88,15.3-16.61,22.09,8.99,11.3,45.59,11.63,54.72-.23Z"/>
  <polygon points="419.96 216.09 213.06 216.11 213.06 111.91 419.93 111.9 419.96 216.09"/>
  <path d="M258.13,296.77l-47.52-45.75-152.4-.03c-17.58-5.75-17.72,10.79-24.91,5.87l-13.17-9.01,25.33-25.78,34.48-.09.15-10.79c.62-.97,3.38-2.28,3.36-3.37l-.08-4.76c-.01-.91,1.77-2.76,1.66-3.7s-.73-2.75-1.3-3.91l-3.85-7.91-11.7-22.63-27.92-52.32c-11.85-22.22-22.81-47.92-35.1-69.09-.65-1.13-.17-3.76.47-4.25.81-.62,3.65.19,4.21,1.2l8.67,15.87c7.29,13.35,15.26,25.34,22.7,38.51l19.11,33.84,27.99,50.05c2.33,4.17,10,10.93,10.15,21.52.01.9,1.95,2.77,1.62,3.44l-1.42,2.89c1.22,4.44,1.59,9.03,1.1,15.45h368.12s28.38,20.93,28.38,20.93l2.74,9.86-10.63-2.42-9.98,6.51-8.58-5.93-165.43.11-46.26,45.72Z"/>
  <path d="M371.37,274.54c-46.01,4.55-86.74,45.36-91.91,91.81-1.16,10.38-.15,20.95-.49,31.68l-42.85-.32c-.48-10.51.58-21.07-.57-31.36-5.2-46.47-45.93-87.29-91.92-91.81-30.61-3-57.39.75-82.23,19.8-1.26.97-5.76,2.6-5.98.52-.7-6.73-.55-12.07-.49-19.53-1.54-.42-6.41-.74-8.1.39l-28.76,19.13c5.1-9.29,9.98-17.43,15.83-26.04,2.64-3.89,6.95-6.9,10.55-10.82l161.64.18,48.13,48.66c1.96,1.44,4.73,1.52,7.03.47l49.8-49.45,160.8.24c3.48,3.04,7.88,5.92,10.43,9.39,6.74,9.17,12.45,17.74,18.74,28.16l-29.28-20.53-7.69-.11-.14,19.02c-.01,1.87-3.95,4.1-5.69,3.7-26.45-21.5-53.37-26.49-86.86-23.18Z"/>
  <polygon points="197.91 158.04 85.32 158.06 59.22 110.67 59.16 87.95 197.89 87.94 197.91 158.04"/>
  <polygon points="407.28 102.92 321.74 102.99 321.78 32.95 407.22 32.94 407.28 102.92"/>
  <path d="M104.4,214.06c-.75-5.5-.01-11.6-1.22-16.49l-2.14-8.65c-2.62-10.58-10.35-15.07-13.2-27.01h109.96s.14,52.14.14,52.14h-93.54Z"/>
  <polygon points="488.58 194.77 446 184.36 446 145.53 493.02 133.92 492.99 195.9 488.58 194.77"/>
  <polygon points="442.29 195.43 425.8 195.55 425.76 133.54 442.26 133.5 442.29 195.43"/>
  <path d="M73.12,189.12c9.31,18.07.25,14.14-.24,22.62l-.37,6.38-16.4-.18-.02-48.33c1.45-.56,4.6-.72,6.75-.46l10.28,19.96Z"/>
  <path class="st0" d="M420.91,442.43c-9.13,11.86-45.73,11.53-54.72.23,5.74-6.79,12.24-15.12,16.61-22.09,1.18-1.89,3.76-5.37,6.01-5.4l10.92-.17c5.27,5.2,9.16,10.33,13.19,16.06l7.99,11.37Z"/>
  <path class="st0" d="M368.37,416.73l-13.67,18.52-4.61-5.3c-10.1-11.62-14.66-25.41-13.27-41.07.18-2.05,1.37-6.83,3.54-6.4l26.44,8.61c8.99,2.93,4.32,5.81,8.72,15.45l-7.15,10.18ZM369.8,395.3l-29.62-9.92c-.72,7.51-.45,15.85,1.13,23.64h27.87c7.3,0-.24-6.94.62-13.72Z"/>
  <path class="st0" d="M416.01,411.97l-3.67-5.09c5.08-11.27-.41-12.37,8.41-15.2l25.74-8.25c2.22-.61,3.68,4.53,3.8,6.5,1.05,16.8-4.22,32.28-17.52,43.61-6.25-6.99-11.42-14.13-16.77-21.56ZM417.33,409.03l28.4-.03c1.4-7.56,1.8-14.35,1.16-22.73l-28.82,9.44c1.33,4.83-5.83,13.32-.74,13.32Z"/>
  <path class="st0" d="M389.91,380.55c8.11-2.35,15.54,2.3,17.59,9.34,2.2,7.56-1.89,15.42-9.41,17.59-7.19,2.08-14.86-1.54-17.34-8.65s.8-15.86,9.15-18.28Z"/>
  <path class="st0" d="M390.05,369.09c0,5.62-8.5,4.35-13.43,10.97l-19.93-6.14c-4.75-1.47-9.55-1.82-12.07-7.28,8.31-13.52,21.49-24.22,37.24-27.83,1.74-.4,3.94-.73,5.04-.41,1.28.37,3.15,3.2,3.15,4.54l.02,26.16ZM376.48,374.92c3.36-3.32,5.03-4.3,8.52-6.13v-25.38c-14.76,2.1-26.8,10.1-35.22,22.83,2.52,1.08,4.84,1.87,7.37,2.66l19.32,6.02Z"/>
  <path class="st0" d="M413.56,381.42l-6.7-5.13-5.9-4.53-.07-26.94c0-1.56,1.31-4.35,2.5-5.13,1.4-.92,4.51-.54,6.52.19,14.67,5.33,26.29,15.46,33.95,28.88-.95,1.08-3.03,3.5-4.32,3.93l-25.98,8.73ZM412.86,378.45l28.1-9.22c-7.67-13.97-20.81-24.42-36.96-27.65l.03,29.93c3.5,1.68,5.67,3.6,8.83,6.94Z"/>
  <path class="st0" d="M147.91,442.43c-9.13,11.86-45.73,11.52-54.72.23,5.74-6.79,12.24-15.12,16.61-22.09,1.18-1.89,3.76-5.37,6.01-5.4l10.92-.17c5.27,5.2,9.16,10.33,13.19,16.06l7.99,11.37Z"/>
  <path class="st0" d="M95.37,416.73l-13.68,18.53-4.61-5.3c-10.1-11.62-14.65-25.41-13.26-41.07.18-2.05,1.37-6.83,3.54-6.4l26.44,8.61c8.99,2.93,4.31,5.81,8.72,15.45l-7.15,10.18ZM96.8,395.3l-29.62-9.92c-.72,7.51-.45,15.85,1.13,23.64h27.87c7.3,0-.24-6.94.62-13.72Z"/>
  <path class="st0" d="M143.01,411.97l-3.67-5.09c5.08-11.26-.41-12.37,8.41-15.2l25.74-8.25c2.22-.63,3.68,4.53,3.8,6.49,1.05,16.8-4.22,32.29-17.52,43.61-6.25-6.99-11.42-14.13-16.77-21.56ZM144.55,408.99l28.1.1c1.57-7.65,1.89-14.44,1.24-22.81l-28.81,9.44c1.3,5.26-6.02,13.25-.53,13.27Z"/>
  <path class="st0" d="M116.91,380.55c8.11-2.35,15.54,2.3,17.59,9.34,2.19,7.56-1.89,15.42-9.41,17.59s-14.86-1.54-17.34-8.65.8-15.86,9.15-18.28Z"/>
  <path class="st0" d="M117.05,369.09c0,5.66-8.65,4.34-13.39,11l-19.99-6.19c-4.71-1.46-9.55-1.8-12.06-7.27,8.3-13.52,21.49-24.21,37.24-27.82,1.74-.4,3.94-.73,5.04-.41,1.28.37,3.15,3.2,3.15,4.53l.02,26.16ZM103.48,374.92c3.33-3.26,5.16-4.35,8.4-6.11l.14-25.4c-14.78,2.1-26.82,10.1-35.24,22.83,2.52,1.08,4.84,1.88,7.37,2.67l19.32,6.02Z"/>
  <path class="st0" d="M140.56,381.42l-6.7-5.13-5.9-4.53-.07-26.94c0-1.56,1.31-4.35,2.5-5.13,1.39-.91,4.51-.54,6.52.19,14.67,5.32,26.29,15.46,33.96,28.87-.95,1.08-3.03,3.5-4.32,3.93l-25.98,8.73ZM139.86,378.45l28.1-9.22c-7.67-13.98-20.81-24.42-36.96-27.65l.03,29.93c3.49,1.68,5.67,3.61,8.83,6.94Z"/>
  <path d="M369.8,395.3c-.86,6.78,6.69,13.73-.62,13.73h-27.87c-1.59-7.8-1.85-16.14-1.13-23.65l29.62,9.92Z"/>
  <path d="M417.33,409.03c-5.09,0,2.06-8.49.74-13.32l28.82-9.44c.64,8.38.24,15.16-1.16,22.73l-28.4.03Z"/>
  <path d="M376.48,374.92l-19.32-6.02c-2.53-.79-4.86-1.59-7.37-2.66,8.42-12.74,20.46-20.73,35.23-22.83v25.38c-3.5,1.83-5.17,2.81-8.53,6.13Z"/>
  <path d="M412.86,378.45c-3.16-3.34-5.33-5.26-8.83-6.94l-.03-29.93c16.15,3.23,29.29,13.68,36.96,27.65l-28.1,9.22Z"/>
  <path d="M96.8,395.3c-.86,6.78,6.69,13.73-.62,13.73h-27.87c-1.59-7.8-1.85-16.14-1.13-23.65l29.62,9.92Z"/>
  <path d="M144.55,408.99c-5.49-.02,1.82-8.01.53-13.27l28.81-9.44c.65,8.37.34,15.16-1.24,22.81l-28.1-.1Z"/>
  <path d="M103.48,374.92l-19.32-6.02c-2.53-.79-4.86-1.59-7.37-2.67,8.42-12.73,20.46-20.73,35.24-22.83l-.14,25.4c-3.25,1.76-5.07,2.85-8.4,6.11Z"/>
  <path d="M139.86,378.45c-3.15-3.33-5.33-5.26-8.83-6.94l-.03-29.93c16.15,3.23,29.29,13.68,36.96,27.65l-28.1,9.22Z"/>
</svg>