<?xml version="1.0" encoding="UTF-8"?>
<svg id="Layer_1" xmlns="http://www.w3.org/2000/svg" version="1.1" viewBox="0 0 650 650">
  <!-- Generator: Adobe Illustrator 30.1.0, SVG Export Plug-In . SVG Version: 2.1.1 Build 136)  -->
  <path d="M327,236c-23.2,0-42,18.8-42,42,0,16.73,9.84,31.17,24,37.92v226.08c0,9.94,8.06,18,18,18s18-8.06,18-18v-226.08c14.16-6.75,24-21.19,24-37.92,0-23.2-18.8-42-42-42Z"/>
  <path d="M509.44,95.56c-7.03-7.03-18.42-7.03-25.45,0s-7.03,18.42,0,25.45c41.62,41.62,65.02,98.11,65.02,156.98s-23.39,115.36-65.02,156.98c-7.03,7.03-7.03,18.42,0,25.45s18.42,7.03,25.45,0c48.38-48.38,75.56-114,75.56-182.44s-27.19-134.06-75.56-182.44h0Z"/>
  <path d="M170.02,95.56c-7.03-7.03-18.42-7.03-25.45,0-48.38,48.38-75.56,114-75.56,182.44s27.19,134.06,75.56,182.44c7.03,7.03,18.42,7.03,25.45,0s7.03-18.42,0-25.45c-41.62-41.62-65.02-98.11-65.02-156.98s23.39-115.36,65.02-156.98c7.03-7.03,7.03-18.42,0-25.45h0Z"/>
  <path d="M441.56,163.44c-7.03-7.03-18.47-7.03-25.5,0-6.98,7.03-6.98,18.47,0,25.5,23.67,23.62,36.94,55.64,36.94,89.06s-13.27,65.48-36.94,89.11c-6.98,7.03-6.98,18.42,0,25.45,7.03,7.03,18.47,7.03,25.5,0,30.38-30.38,47.44-71.58,47.44-114.56s-17.06-84.19-47.44-114.56h0Z"/>
  <path d="M237.94,163.44c-7.03-7.03-18.47-7.03-25.5,0-30.38,30.38-47.44,71.62-47.44,114.56s17.06,84.19,47.44,114.56c7.03,7.03,18.47,7.03,25.5,0,6.98-7.03,6.98-18.42,0-25.45-23.67-23.62-36.94-55.69-36.94-89.11s13.27-65.44,36.94-89.06c6.98-7.03,6.98-18.47,0-25.5h0Z"/>
</svg>