<?xml version="1.0" encoding="UTF-8"?>
<svg width="1200pt" height="1200pt" version="1.1" viewBox="0 0 1200 1200" xmlns="http://www.w3.org/2000/svg">
 <path d="m393.84 75c-51.609 0-93.844 42.047-93.844 93.703v862.6c0 51.609 42.234 93.703 93.844 93.703h412.5c51.609 0 93.656-42.094 93.656-93.703v-862.6c0-51.609-42.047-93.703-93.656-93.703zm0 37.5h82.172l15.516 30.984c13.453 26.859 40.969 44.016 71.016 44.016h75.047c30.047 0 57.516-17.156 70.969-44.016l15.562-30.984h82.219c31.5 0 56.156 24.703 56.156 56.156v862.64c0 31.5-24.703 56.203-56.156 56.203h-412.5c-31.5 0-56.344-24.75-56.344-56.203v-862.6c0-31.5 24.891-56.156 56.344-56.156zm124.08 0h164.34l-7.1719 14.25c-7.125 14.25-21.562 23.25-37.5 23.25h-75c-15.938 0-30.375-9-37.5-23.25zm174.66 187.55c-5.8125 0.42188-11.062 3.4688-14.297 8.2969l-225.05 337.45c-2.7656 4.1719-3.75 9.2344-2.7656 14.109s3.8906 9.1875 8.0156 11.906c8.625 5.6719 20.203 3.3281 25.922-5.25l225-337.45c2.7656-4.125 3.7969-9.2344 2.7656-14.109-0.98438-4.875-3.8438-9.1875-8.0156-11.906-3.4219-2.25-7.5-3.3281-11.578-3.0469zm-112.45 37.453c-5.8125 0.42188-11.156 3.5156-14.344 8.3438l-75.047 112.55c-5.6719 8.5781-3.4219 20.156 5.1094 25.922 4.125 2.7656 9.1875 3.7969 14.109 2.8125 4.875-0.9375 9.1406-3.8438 11.953-7.9688l75-112.55c2.7656-4.125 3.7969-9.1875 2.8125-14.062-0.9375-4.875-3.8438-9.1875-7.9688-11.953-3.4219-2.2969-7.5-3.375-11.625-3.0938zm149.86 37.5c-5.8125 0.42188-11.109 3.5156-14.344 8.3438l-149.86 224.95c-2.8125 4.125-3.7969 9.1875-2.8594 14.062 0.98438 4.9219 3.8438 9.1875 7.9688 11.953 8.5781 5.7656 20.25 3.4688 26.016-5.1094l150-225.1c2.7656-4.125 3.75-9.1875 2.7656-14.062s-3.8438-9.1875-7.9688-11.906c-3.4688-2.2969-7.5469-3.4219-11.719-3.1406zm-186.1 637.45c-5.0156 0-9.7969 1.9688-13.312 5.4844-3.5625 3.5625-5.5312 8.3438-5.4844 13.359 0 4.9688 2.0156 9.7031 5.5312 13.219 3.5156 3.5156 8.2969 5.4844 13.266 5.4375h112.41c4.9688 0.046875 9.75-1.9219 13.266-5.4375 3.5156-3.5156 5.5312-8.25 5.5312-13.219 0.046874-5.0156-1.9219-9.7969-5.4844-13.359-3.5156-3.5156-8.3438-5.4844-13.312-5.4844z"/>
</svg>
