<?xml version="1.0" encoding="UTF-8"?>
<svg width="1200pt" height="1200pt" version="1.1" viewBox="0 0 1200 1200" xmlns="http://www.w3.org/2000/svg">
 <path d="m600 40.688c154.45 0 294.24 62.625 395.44 163.82l59.391-59.391c5.2031-5.2031 12.422-6.8438 19.359-4.4062s11.578 8.2031 12.375 15.516l29.297 257.81c0.65625 5.8594-1.1719 11.156-5.3438 15.281-4.1719 4.1719-9.4688 6-15.281 5.3438l-257.81-29.297c-7.2656-0.84375-13.078-5.4375-15.516-12.375s-0.75-14.156 4.4062-19.359l59.344-59.344c-73.125-73.125-174.14-118.36-285.71-118.36-223.18 0-404.06 180.89-404.06 404.06 0 13.125 0.65625 26.062 1.875 38.859l-155.72-0.046874c-0.89062-12.844-1.3594-25.781-1.3594-38.859 0-308.86 250.4-559.26 559.31-559.26zm-515.9 745.26 29.297 257.81c0.84375 7.2656 5.4375 13.078 12.375 15.516s14.156 0.75 19.359-4.4062l59.391-59.391c101.2 101.2 241.03 163.82 395.44 163.82 308.9 0 559.31-250.4 559.31-559.31 0-13.078-0.46875-26.016-1.3594-38.859h-155.72c1.2188 12.797 1.875 25.734 1.875 38.859 0 223.18-180.89 404.06-404.06 404.06-111.61 0-212.58-45.234-285.71-118.36l59.344-59.344c5.2031-5.2031 6.8438-12.422 4.4062-19.359s-8.2031-11.578-15.516-12.375l-257.81-29.297c-5.8594-0.65625-11.156 1.1719-15.281 5.3438-4.1719 4.1719-6 9.4688-5.3438 15.281z" fill-rule="evenodd"/>
</svg>
