<?xml version="1.0" encoding="UTF-8"?>
<svg width="1200pt" height="1200pt" version="1.1" viewBox="0 0 1200 1200" xmlns="http://www.w3.org/2000/svg">
 <path d="m1096.9 398.77-578.28-333.88c-8.832-5.0898-18.133-5.5547-25.5-1.2734l-11.773 6.8398c-0.25391 0.14453-0.50391 0.30078-0.74219 0.46875-6.8398 4.3555-10.754 12.324-10.777 22.02l-1.2461 412.04c-0.011719 4.6094 0.89844 9.3711 2.4258 14.051-6.2891 0.82812-12.336 2.6875-17.426 5.6523l-361.71 210.15c-8.7227 5.0742-13.703 12.852-13.691 21.203l-0.046875 21.793c-0.023438 8.5312 5.0273 16.355 13.859 21.457l578.2 333.83c7.1289 4.1055 16.031 6.1562 24.938 6.1562 8.9023 0 17.809-2.0508 24.887-6.1797l361.67-210.13c8.6992-5.0391 13.703-12.77 13.715-21.215l0.058593-17.594c0.625-0.23828 1.2344-0.50391 1.8242-0.85156l11.762-6.8398c7.2734-4.2344 11.484-12.422 11.52-22.477l1.2344-412.04c0.050781-16.395-10.652-34.957-24.895-43.176zm-588.65 106.81 1.1523-381.27c0.011719-2.9883 2.1484-4.2109 4.7539-2.7109l551.5 318.41c2.6055 1.5 4.7266 5.1836 4.7148 8.1719l-1.1523 381.27c-0.011719 2.9883-2.1484 4.2109-4.7539 2.7109l-551.5-318.39c-2.6055-1.5117-4.7266-5.1836-4.7148-8.1836zm-406 271.92c-0.070312 0-0.12109 0.046875-0.13281 0.13281l-0.15625-20.473c0.10938-0.17969 0.68359-0.82812 1.9688-1.5703l361.68-210.14c5.5938-3.2539 15.254-3.5742 22.176-1.3086 1.8242 1.5 583.54 337.64 583.54 337.64 0.011719 0.82812-0.011719 1.668 0.16797 2.4609l0.058594 9.0703-366.29 212.16c-7.7656 4.5117-19.176 5.6406-28.895 3.5039l-572.38-330.47c-0.91016-0.52734-1.4883-1.0078-1.7383-1.0078z"/>
 <path d="m588.25 897.04-134.62-77.723c-6.3242-3.6484-15.828-3.6484-22.117 0.011719l-69.875 40.609c-4.0078 2.3164-6.2891 5.9023-6.2891 9.8398 0 3.9492 2.3164 7.5469 6.3477 9.875l134.62 77.723c3.168 1.8242 7.1172 2.7344 11.074 2.7344 3.9609 0 7.9062-0.91016 11.062-2.7461l69.875-40.609c3.9961-2.3164 6.2891-5.9023 6.2891-9.8281-0.007813-3.957-2.3359-7.5586-6.3672-9.8867zm-75.816 49.945c-2.5781 1.5234-7.5 1.5-10.117 0l-133.64-77.258 68.867-40.031c2.5781-1.4883 7.4648-1.4883 10.094 0.011719l133.74 77.207z"/>
 <path d="m811.45 983.18c3.9492 0 7.8945-0.91016 11.039-2.7461l149.96-87.121c4.0078-2.3164 6.2891-5.9141 6.2773-9.8398 0-3.9492-2.3164-7.5469-6.3477-9.875l-479.5-276.84c-6.3125-3.6484-15.828-3.6602-22.129 0.011719l-149.99 87.109c-3.9844 2.3164-6.2539 5.9023-6.2539 9.8281 0.011719 3.9492 2.3281 7.5469 6.3594 9.875l479.5 276.84c3.168 1.8477 7.1289 2.7578 11.078 2.7578zm-334.67-376.03c2.5938-1.5 7.5117-1.4883 10.105 0.011718l478.62 276.32-149.04 86.578c-2.6055 1.4883-7.4883 1.4766-10.094-0.023437l-478.54-276.37z"/>
 <path d="m547.38 298.9 70.871-70.859 8.4844 8.4883-70.871 70.859z"/>
 <path d="m541.42 374.47 117.59-117.57 8.4844 8.4883-117.59 117.57z"/>
</svg>
