<?xml version="1.0" encoding="UTF-8"?>
<svg width="1200pt" height="1200pt" version="1.1" viewBox="0 0 1200 1200" xmlns="http://www.w3.org/2000/svg">
 <path d="m399.78 640.46 45.207-266.49c2.1289-12.562 12.703-21.918 25.414-22.48 13.086-0.47656 24.113 7.7617 27.375 20.055l108.1 406.79 86.773-594.76c1.8477-12.703 12.395-22.359 25.227-23.09 12.695-0.89844 24.395 7.668 27.664 20.109l121.16 459.91h237.98c60.352-81.793 95.312-162.86 95.312-255.91 0-183.54-148.81-332.37-332.39-332.37-109.94 0-207.11 53.578-267.61 135.84-60.516-82.258-157.67-135.84-267.63-135.84-183.56 0-332.37 148.83-332.37 332.37 0 98.07 28.867 179.49 78.797 255.56z"/>
 <path d="m845.88 694.55c-12.289 0-23.035-8.2773-26.148-20.137l-92.711-351.89-86.664 594.05c-1.8672 12.703-12.395 22.359-25.211 23.09-0.51562 0.039063-1.0391 0.054688-1.5547 0.054688-12.188 0-22.961-8.2031-26.117-20.109l-110-413.89-28.219 166.33c-2.2031 13.004-13.473 22.5-26.652 22.5h-0.039063l-304.25-0.28906c110.22 136.84 286.51 264.5 481.68 453.52 186.95-190.34 352-325.93 461.43-453.23z"/>
</svg>
