<?xml version="1.0" encoding="UTF-8"?>
<svg id="Layer_1" xmlns="http://www.w3.org/2000/svg" version="1.1" viewBox="0 0 1863.8 902.77">
  <!-- Generator: Adobe Illustrator 30.1.0, SVG Export Plug-In . SVG Version: 2.1.1 Build 136)  -->
  <defs>
    <style>
      .st0 {
        fill: #fff;
      }
    </style>
  </defs>
  <path d="M1298,813.35c-9.96-53.41-115.93-145.26-246.45-148.75-134.5-3.61-254.63,102.62-255.53,154.21-.93,53.77,55.49,62.15,55.49,62.15,4.11,0,60.77-.1,129.8-.19-26.83-21.22-44.4-53.66-44.4-90.46,0-63.88,51.96-115.81,115.82-115.81s115.78,51.94,115.78,115.81c0,36.65-17.46,69-44.12,90.2,66.74-.09,119.45-.18,119.45-.18,36.99-.05,62.75-21.07,54.15-66.98h.01Z"/>
  <path d="M1788.8,764.74h-231.57l174.35-190.39c1-1,16.06-17.22,21.54-25.9,21.71-34.72,20.95-76.7,2.48-110.14-.05-.1-.1-.23-.14-.36-26.26-49.26-82.14-130.87-180.29-172.16-96.86-40.75-151.63-26.23-181.63-13.78-44.62,18.54-73.28,49.12-91.45,77.26-.1.14-98.17,171.97-98.17,171.97l-151.37,62.09c-25.99,10.63-38.43,40.35-27.77,66.3,8.06,19.72,27.05,31.6,47.06,31.6,6.42,0,12.96-1.22,19.27-3.83l167.54-68.71c.82-.31,1.43-.95,2.2-1.34,3.01-1.36,5.77-3.12,8.46-5.12,1.36-.98,2.72-1.84,3.98-2.96,2.58-2.35,4.77-5.12,6.91-8,.68-1,1.67-1.68,2.3-2.71l77.59-124.66v85.41l-97.61,134.81c-17.48,24.13-12.07,57.84,12.06,75.29,9.55,6.91,20.59,10.26,31.59,10.26,16.7,0,33.17-7.74,43.7-22.28l107.86-148.96c6.7-9.21,10.25-20.29,10.25-31.65v-75.16c6.96,3.71,13.9,7.59,20.62,12.07,14.93,9.94,29.69,23.58,42.77,36.97l-149.16,245.79c-6.98,10.49-22.39,28.79-13.75,67.3,5.61,24.89,34.2,46.86,57.16,46.86h363.23c31.97,0,57.94-25.9,57.94-58s-25.96-57.88-57.93-57.88h-.02Z"/>
  <path d="M1007.01,357.58h-112.55v-112.5h-101.07v112.5h-112.53v101.07h112.53v112.56h101.07v-112.56h112.55v-101.07Z"/>
  <path d="M1263.5,215.08l-60.05-44.3-132.32,92.29c-16.46-34.82-25.61-83.79-16.7-121.8,9.28-39.12,32.93-72,65.35-94.6,38.06-26.53,81.3-34.26,129.71-23.12,48.36,11.06,87.25,37.66,116.44,79.51,6.7,9.64,11.8,19.44,16.23,29.29l-118.67,82.73h.01Z"/>
  <path d="M1202.91,208.62l60.05,44.32,70.96-49.45c-.8,35.09-17.36,69.34-48.36,90.95-51.85,36.18-123.23,23.46-159.38-28.43-.61-.86-.98-1.89-1.6-2.79l78.33-54.6Z"/>
  <path d="M1142.37,790.3c0-49.49-40.13-89.69-89.64-89.69s-89.69,40.2-89.69,89.69,40.13,89.65,89.69,89.65,89.64-40.2,89.64-89.65h0Z"/>
  <g>
    <path class="st0" d="M416.05,504.1l-.05-68h-83.03l-.04,68.07,83.12-.07ZM271.11,688.59l44.95-44.43,160.76-.11,8.34,5.76,9.69-6.32,10.33,2.35-2.67-9.58-27.57-20.34H117.23c.48-6.24.11-10.7-1.07-15.01l1.38-2.81c.32-.65-1.57-2.48-1.58-3.35-.14-10.29-7.59-16.86-9.86-20.92l-27.2-48.63-18.57-32.88c-7.23-12.8-14.97-24.45-22.06-37.42l-8.43-15.43c-.54-.98-3.3-1.77-4.09-1.16-.63.48-1.1,3.04-.46,4.13,11.95,20.57,22.59,45.55,34.11,67.14l27.13,50.84,11.37,21.99,3.74,7.69c.55,1.13,1.15,2.88,1.26,3.8s-1.62,2.71-1.61,3.6l.07,4.63c.02,1.06-2.66,2.33-3.26,3.27l-.14,10.49-33.51.09-24.62,25.06,12.79,8.76c6.99,4.79,7.12-11.28,24.21-5.7l148.1.03,46.18,44.46h0ZM212.59,560.58v-68.12H77.76s.06,22.08.06,22.08l25.37,46.06,109.41-.02h-.01ZM423.51,610.19l-.02-101.25h-201.03v101.26h201.05ZM444.24,590.11l-.04-60.18-16.03.04.04,60.26,16.03-.12ZM489.23,589.47l4.28,1.1.03-60.23-45.69,11.28v37.73l41.39,10.12h0ZM94.24,583.98l-9.99-19.4c-2.08-.25-5.14-.1-6.55.45l.02,46.96,15.94.18.36-6.2c.48-8.24,9.28-4.42.23-21.98h-.01ZM121.72,612.1h90.9l-.14-47.75h-106.86c2.77,8.68,10.28,13.04,12.82,23.32l2.08,8.4c1.18,4.76.46,10.68,1.19,16.02h.01ZM381.15,671.85c32.54-3.22,58.71,1.63,84.41,22.53,1.69.38,5.51-1.78,5.53-3.6l.13-18.48,7.47.11,28.46,19.95c-6.11-10.12-11.66-18.45-18.22-27.36-2.47-3.36-6.75-6.17-10.13-9.12l-156.26-.23-48.4,48.05c-2.24,1.02-4.93.94-6.83-.46l-46.77-47.29-157.07-.17c-3.51,3.81-7.69,6.74-10.26,10.52-5.69,8.36-10.43,16.28-15.38,25.3l27.95-18.59c1.64-1.09,6.37-.79,7.87-.38-.06,7.25-.21,12.44.48,18.98.21,2.03,4.58.44,5.81-.5,24.14-18.51,50.16-22.16,79.91-19.24,44.69,4.39,84.28,44.06,89.33,89.21,1.12,10,.08,20.27.56,30.48l41.64.31c.33-10.43-.65-20.7.47-30.79,5.02-45.14,44.61-84.8,89.32-89.22h-.02ZM133.96,678.68c-55.67,5.74-98.43,59.31-92.41,113.63,6.02,54.34,54.86,93.72,109.2,88.12,54.65-5.63,98.14-58.2,92.49-112.92-4.69-45.5-64.41-93.45-109.29-88.83h.01ZM387.59,678.68c-55.67,5.74-94.82,55.7-88.8,110.02,6.02,54.34,58.46,97.32,112.81,91.72,54.65-5.63,94.53-54.59,88.89-109.31-5.57-54.04-57.52-98.14-112.9-92.43h0Z"/>
    <path d="M391.2,682.29c55.37-5.71,103.72,34.79,109.29,88.83,5.64,54.72-34.24,103.68-88.89,109.31-54.35,5.6-103.18-33.77-109.2-88.12-6.02-54.32,33.13-104.28,88.8-110.02ZM397.09,756.64l-.02-25.42c0-1.3-1.82-4.05-3.06-4.41-1.06-.31-3.21.02-4.89.4-15.31,3.51-28.12,13.9-36.19,27.04,2.45,5.3,7.11,5.65,11.73,7.07l19.37,5.97c4.79-6.44,13.06-5.2,13.05-10.66h.01ZM419.93,768.63l25.25-8.49c1.25-.42,3.27-2.77,4.19-3.82-7.45-13.04-18.74-22.88-33-28.06-1.96-.71-4.98-1.07-6.34-.18-1.16.76-2.44,3.47-2.43,4.99l.07,26.18,5.74,4.4,6.51,4.98h0ZM396.94,767.78c-8.11,2.35-11.33,10.77-8.89,17.77s9.86,10.43,16.85,8.41c7.31-2.11,11.27-9.75,9.14-17.1-1.99-6.84-9.22-11.37-17.09-9.08h-.01ZM376.02,802.94l6.95-9.89c-4.28-9.37.26-12.17-8.47-15.01l-25.7-8.37c-2.1-.42-3.26,4.23-3.44,6.22-1.35,15.21,3.07,28.62,12.89,39.91l4.48,5.15,13.29-18h0ZM422.31,798.32c5.2,7.23,10.22,14.16,16.3,20.96,12.92-11.01,18.05-26.06,17.02-42.38-.12-1.92-1.54-6.91-3.69-6.31l-25.01,8.02c-8.58,2.75-3.24,3.82-8.17,14.77l3.56,4.95h0ZM427.07,827.92l-7.77-11.05c-3.91-5.57-7.7-10.56-12.81-15.61l-10.62.16c-2.19.03-4.69,3.42-5.84,5.25-4.25,6.77-10.57,14.87-16.15,21.47,8.74,10.98,44.3,11.3,53.18-.22h0Z"/>
    <path d="M130.36,682.29c55.38-5.71,103.72,34.79,109.29,88.83,5.64,54.72-34.24,103.68-88.89,109.31-54.35,5.6-103.18-33.77-109.2-88.12-6.02-54.32,33.13-104.28,88.8-110.02ZM136.24,756.65l-.02-25.43c0-1.29-1.82-4.05-3.06-4.41-1.06-.31-3.21.02-4.89.4-15.3,3.51-28.12,13.9-36.18,27.04,2.43,5.32,7.14,5.65,11.72,7.06l19.43,6.02c4.6-6.48,13.02-5.19,13.01-10.69h0ZM159.08,768.63l25.25-8.49c1.25-.42,3.27-2.77,4.19-3.82-7.45-13.04-18.74-22.89-33-28.06-1.96-.71-4.98-1.07-6.34-.18-1.16.76-2.44,3.47-2.43,4.99l.07,26.18,5.74,4.4,6.51,4.98h0ZM136.1,767.78c-8.11,2.36-11.33,10.77-8.89,17.77,2.41,6.92,9.85,10.43,16.85,8.41,7.31-2.11,11.27-9.75,9.14-17.1-1.99-6.84-9.22-11.37-17.09-9.08h-.01ZM115.17,802.94l6.95-9.9c-4.28-9.37.27-12.17-8.47-15.01l-25.7-8.37c-2.1-.42-3.26,4.23-3.44,6.22-1.35,15.21,3.07,28.62,12.89,39.91l4.48,5.15,13.29-18h0ZM161.46,798.32c5.2,7.23,10.22,14.16,16.3,20.95,12.93-11.01,18.05-26.06,17.02-42.38-.12-1.91-1.54-6.92-3.69-6.31l-25.01,8.02c-8.57,2.75-3.24,3.83-8.17,14.77l3.56,4.95h-.01ZM166.23,827.92l-7.77-11.05c-3.91-5.57-7.69-10.56-12.82-15.61l-10.62.16c-2.18.03-4.69,3.42-5.84,5.25-4.25,6.77-10.57,14.87-16.14,21.47,8.73,10.98,44.3,11.3,53.18-.22h0Z"/>
    <polygon points="430.72 610.19 229.67 610.2 229.67 508.95 430.7 508.94 430.72 610.19"/>
    <path d="M271.11,688.59l-46.18-44.46-148.1-.03c-17.08-5.58-17.22,10.49-24.21,5.7l-12.79-8.76,24.62-25.06,33.51-.09.14-10.49c.6-.94,3.28-2.21,3.26-3.27l-.07-4.63c-.01-.89,1.72-2.68,1.61-3.6s-.71-2.67-1.26-3.8l-3.74-7.69-11.37-21.99-27.13-50.84c-11.52-21.59-22.16-46.56-34.11-67.14-.64-1.1-.17-3.65.46-4.13.78-.6,3.55.18,4.09,1.16l8.43,15.43c7.09,12.97,14.83,24.62,22.06,37.42l18.57,32.88,27.2,48.63c2.27,4.06,9.72,10.63,9.86,20.92.01.87,1.9,2.7,1.58,3.35l-1.38,2.81c1.18,4.31,1.55,8.78,1.07,15.02h357.73l27.57,20.34,2.67,9.58-10.33-2.35-9.69,6.32-8.34-5.76-160.76.11-44.95,44.43h-.02Z"/>
    <path d="M381.15,667.51c-44.71,4.42-84.3,44.08-89.32,89.22-1.12,10.09-.15,20.36-.47,30.79l-41.64-.31c-.47-10.21.56-20.47-.56-30.48-5.05-45.16-44.63-84.83-89.33-89.21-29.75-2.92-55.77.73-79.91,19.24-1.23.94-5.6,2.53-5.81.5-.68-6.54-.54-11.72-.48-18.98-1.5-.41-6.23-.71-7.87.38l-27.95,18.59c4.96-9.03,9.7-16.94,15.38-25.3,2.57-3.78,6.75-6.7,10.26-10.52l157.07.17,46.77,47.29c1.91,1.4,4.6,1.48,6.83.46l48.4-48.05,156.26.23c3.38,2.95,7.66,5.76,10.13,9.12,6.55,8.91,12.1,17.24,18.22,27.36l-28.46-19.95-7.47-.11-.13,18.48c-.01,1.82-3.84,3.98-5.53,3.6-25.7-20.9-51.86-25.74-84.41-22.53h.02Z"/>
    <polygon points="214.39 551.56 104.98 551.58 79.62 505.53 79.56 483.45 214.38 483.44 214.39 551.56"/>
    <polygon points="416.05 498.69 332.92 498.76 332.96 430.69 415.99 430.69 416.05 498.69"/>
    <path d="M123.52,608.5c-.73-5.35-.01-11.27-1.19-16.02l-2.08-8.4c-2.55-10.28-10.05-14.64-12.82-23.33h106.86l.14,47.75h-90.91Z"/>
    <polygon points="494.64 589.47 453.26 579.35 453.25 541.62 498.94 530.34 498.92 590.57 494.64 589.47"/>
    <polygon points="444.24 590.11 428.22 590.23 428.18 529.97 444.21 529.93 444.24 590.11"/>
    <path d="M92.44,583.98c9.05,17.56.24,13.74-.23,21.98l-.36,6.2-15.94-.18-.02-46.96c1.41-.55,4.47-.7,6.55-.45l9.99,19.4h.01Z"/>
    <path class="st0" d="M427.07,827.92c-8.87,11.52-44.44,11.2-53.18.22,5.58-6.6,11.89-14.7,16.15-21.47,1.15-1.83,3.65-5.22,5.84-5.25l10.62-.16c5.12,5.05,8.9,10.04,12.81,15.61l7.77,11.05h0Z"/>
    <path class="st0" d="M376.02,802.94l-13.29,18-4.48-5.15c-9.82-11.29-14.24-24.7-12.89-39.91.18-1.99,1.33-6.64,3.44-6.22l25.7,8.37c8.73,2.84,4.19,5.65,8.47,15.01l-6.95,9.89h0ZM377.4,782.12l-28.78-9.64c-.7,7.29-.44,15.4,1.1,22.98h27.08c7.09,0-.23-6.74.6-13.33h0Z"/>
    <path class="st0" d="M422.31,798.32l-3.56-4.95c4.93-10.95-.4-12.02,8.17-14.77l25.01-8.02c2.15-.6,3.57,4.4,3.69,6.31,1.03,16.32-4.1,31.37-17.02,42.38-6.08-6.79-11.09-13.73-16.3-20.96h0ZM423.6,795.46l27.6-.03c1.36-7.35,1.75-13.94,1.12-22.09l-28.01,9.18c1.29,4.69-5.67,12.95-.72,12.94h.01Z"/>
    <path class="st0" d="M396.94,767.78c7.88-2.29,15.11,2.24,17.09,9.08,2.13,7.34-1.84,14.99-9.14,17.1-6.99,2.02-14.44-1.49-16.85-8.41s.78-15.41,8.89-17.77h.01Z"/>
    <path class="st0" d="M397.09,756.64c0,5.46-8.26,4.22-13.05,10.66l-19.37-5.97c-4.62-1.42-9.28-1.77-11.73-7.07,8.07-13.14,20.88-23.53,36.19-27.04,1.69-.39,3.83-.71,4.89-.4,1.24.36,3.06,3.11,3.06,4.41l.02,25.42h-.01ZM383.9,762.32c3.26-3.23,4.89-4.18,8.28-5.96v-24.67c-14.35,2.04-26.04,9.81-34.22,22.19,2.45,1.05,4.7,1.82,7.17,2.59l18.78,5.85h-.01Z"/>
    <path class="st0" d="M419.93,768.63l-6.51-4.98-5.74-4.4-.07-26.18c0-1.52,1.27-4.23,2.43-4.99,1.36-.89,4.38-.53,6.34.18,14.25,5.18,25.55,15.02,33,28.06-.92,1.05-2.95,3.4-4.19,3.82l-25.25,8.49h0ZM419.25,765.74l27.31-8.96c-7.46-13.58-20.22-23.73-35.92-26.87l.03,29.08c3.4,1.64,5.51,3.5,8.58,6.74h0Z"/>
    <path class="st0" d="M166.23,827.92c-8.87,11.52-44.44,11.2-53.18.22,5.58-6.6,11.89-14.7,16.14-21.47,1.15-1.83,3.65-5.22,5.84-5.25l10.62-.16c5.12,5.05,8.9,10.04,12.82,15.61l7.77,11.05h-.01Z"/>
    <path class="st0" d="M115.17,802.94l-13.29,18-4.48-5.15c-9.82-11.29-14.24-24.7-12.89-39.91.18-1.99,1.33-6.64,3.44-6.22l25.7,8.37c8.74,2.85,4.19,5.65,8.47,15.01l-6.95,9.9h0ZM116.56,782.12l-28.78-9.64c-.7,7.29-.44,15.4,1.1,22.98h27.08c7.09,0-.23-6.74.6-13.33h0Z"/>
    <path class="st0" d="M161.46,798.32l-3.56-4.95c4.93-10.94-.4-12.02,8.17-14.77l25.01-8.02c2.15-.61,3.57,4.41,3.69,6.31,1.02,16.32-4.1,31.37-17.02,42.38-6.08-6.79-11.09-13.73-16.3-20.95h.01ZM162.96,795.42l27.31.09c1.53-7.43,1.84-14.03,1.2-22.16l-28,9.18c1.26,5.11-5.85,12.87-.51,12.89h0Z"/>
    <path class="st0" d="M136.1,767.78c7.88-2.29,15.11,2.24,17.09,9.08,2.13,7.34-1.84,14.99-9.14,17.1-6.99,2.02-14.44-1.49-16.85-8.41-2.44-7,.78-15.41,8.89-17.77h0Z"/>
    <path class="st0" d="M136.24,756.65c0,5.5-8.41,4.22-13.01,10.69l-19.43-6.02c-4.58-1.42-9.28-1.75-11.72-7.06,8.06-13.13,20.88-23.53,36.18-27.04,1.69-.39,3.83-.71,4.89-.4,1.24.36,3.06,3.11,3.06,4.41l.02,25.43h0ZM123.04,762.31c3.24-3.17,5.01-4.23,8.16-5.94l.14-24.69c-14.36,2.04-26.06,9.81-34.24,22.19,2.45,1.05,4.7,1.82,7.17,2.59,0,0,18.77,5.85,18.77,5.85Z"/>
    <path class="st0" d="M159.08,768.63l-6.51-4.98-5.74-4.4-.07-26.18c0-1.52,1.27-4.23,2.43-4.99,1.35-.89,4.38-.53,6.34.18,14.25,5.17,25.54,15.02,33,28.06-.92,1.05-2.95,3.4-4.19,3.82l-25.25,8.49h0ZM158.41,765.74l27.31-8.96c-7.46-13.58-20.22-23.73-35.92-26.87l.03,29.08c3.4,1.63,5.51,3.51,8.58,6.74h0Z"/>
    <path d="M377.4,782.12c-.83,6.59,6.5,13.34-.6,13.34h-27.08c-1.54-7.58-1.8-15.69-1.1-22.98l28.78,9.64h0Z"/>
    <path d="M423.6,795.46c-4.95,0,2.01-8.25.72-12.94l28.01-9.18c.62,8.14.24,14.74-1.12,22.09l-27.6.03h-.01Z"/>
    <path d="M383.9,762.32l-18.78-5.85c-2.46-.77-4.72-1.54-7.17-2.59,8.18-12.38,19.88-20.15,34.23-22.19v24.67c-3.4,1.78-5.03,2.73-8.29,5.96h.01Z"/>
    <path d="M419.25,765.74c-3.07-3.24-5.18-5.11-8.58-6.74l-.03-29.08c15.7,3.14,28.46,13.29,35.92,26.87l-27.31,8.96h0Z"/>
    <path d="M116.56,782.12c-.83,6.59,6.5,13.34-.6,13.34h-27.08c-1.54-7.58-1.8-15.69-1.1-22.98l28.78,9.64h0Z"/>
    <path d="M162.96,795.42c-5.34-.02,1.77-7.78.51-12.89l28-9.18c.63,8.13.33,14.73-1.2,22.16l-27.31-.09h0Z"/>
    <path d="M123.04,762.31l-18.77-5.85c-2.46-.77-4.72-1.54-7.17-2.59,8.18-12.37,19.88-20.15,34.24-22.19l-.14,24.69c-3.15,1.71-4.92,2.77-8.16,5.94Z"/>
    <path d="M158.41,765.74c-3.06-3.24-5.18-5.11-8.58-6.74l-.03-29.08c15.7,3.14,28.46,13.29,35.92,26.87l-27.31,8.96h0Z"/>
  </g>
</svg>