<?xml version="1.0" encoding="UTF-8"?>
<svg id="Layer_1" xmlns="http://www.w3.org/2000/svg" version="1.1" viewBox="0 0 2191.8 1200">
  <!-- Generator: Adobe Illustrator 30.1.0, SVG Export Plug-In . SVG Version: 2.1.1 Build 136)  -->
  <path d="M1626,961.84c-9.96-53.41-115.93-145.26-246.45-148.75-134.5-3.61-254.63,102.62-255.53,154.21-.93,53.77,55.49,62.15,55.49,62.15,4.11,0,60.77-.1,129.8-.19-26.83-21.22-44.4-53.66-44.4-90.46,0-63.88,51.96-115.81,115.82-115.81s115.78,51.94,115.78,115.81c0,36.65-17.46,69-44.12,90.2,66.74-.09,119.45-.18,119.45-.18,36.99-.05,62.75-21.07,54.15-66.98h.01Z"/>
  <path d="M2116.8,913.23h-231.57l174.35-190.39c1-1,16.06-17.22,21.54-25.9,21.71-34.72,20.95-76.7,2.48-110.14-.05-.1-.1-.23-.14-.36-26.26-49.26-82.14-130.87-180.29-172.16-96.86-40.75-151.63-26.23-181.63-13.78-44.62,18.54-73.28,49.12-91.45,77.26-.1.14-98.17,171.97-98.17,171.97l-151.37,62.09c-25.99,10.63-38.43,40.35-27.77,66.3,8.06,19.72,27.05,31.6,47.06,31.6,6.42,0,12.96-1.22,19.27-3.83l167.54-68.71c.82-.31,1.43-.95,2.2-1.34,3.01-1.36,5.77-3.12,8.46-5.12,1.36-.98,2.72-1.84,3.98-2.96,2.58-2.35,4.77-5.12,6.91-8,.68-1,1.67-1.68,2.3-2.71l77.59-124.66v85.41l-97.61,134.81c-17.48,24.13-12.07,57.84,12.06,75.29,9.55,6.91,20.59,10.26,31.59,10.26,16.7,0,33.17-7.74,43.7-22.28l107.86-148.96c6.7-9.21,10.25-20.29,10.25-31.65v-75.16c6.96,3.71,13.9,7.59,20.62,12.07,14.93,9.94,29.69,23.58,42.77,36.97l-149.16,245.79c-6.98,10.49-22.39,28.79-13.75,67.3,5.61,24.89,34.2,46.86,57.16,46.86h363.23c31.97,0,57.94-25.9,57.94-58,0-31.93-25.96-57.88-57.93-57.88h0Z"/>
  <path d="M1335.01,506.07h-112.55v-112.5h-101.07v112.5h-112.53v101.07h112.53v112.56h101.07v-112.56h112.55v-101.07Z"/>
  <path d="M1591.5,363.57l-60.05-44.3-132.32,92.29c-16.46-34.82-25.61-83.79-16.7-121.8,9.28-39.12,32.93-72,65.35-94.6,38.06-26.53,81.3-34.26,129.71-23.12,48.36,11.06,87.25,37.66,116.44,79.51,6.7,9.64,11.8,19.44,16.23,29.29l-118.67,82.73Z"/>
  <path d="M1530.91,357.11l60.05,44.32,70.96-49.45c-.8,35.09-17.36,69.34-48.36,90.95-51.85,36.18-123.23,23.46-159.38-28.43-.61-.86-.98-1.89-1.6-2.79l78.33-54.6Z"/>
  <path d="M1470.37,938.79c0-49.49-40.13-89.69-89.64-89.69s-89.69,40.2-89.69,89.69,40.13,89.65,89.69,89.65,89.64-40.2,89.64-89.65h0Z"/>
  <path d="M11.47,804.12c-1.68,2.36-2.5,5.22-2.31,8.12.19,2.89,1.36,5.63,3.33,7.75h0s8.5,9.97,8.5,9.97c1.02,1.14,2.15,2.04,3.18,3.18-.6-3.8-.29-7.68.91-11.34l7.14-22.11h-.57c-3.27-2.05-7.22-2.74-10.99-1.92s-7.07,3.1-9.19,6.34h0Z"/>
  <path d="M68.46,839.94c-3.7,7.16-10.79,11.94-18.82,12.7,17.06,9.08,34.62,17.18,52.6,24.26,28.91,14.2,54.88,33.74,76.52,57.59,7.03,6.83,11.48,15.88,12.58,25.62.57,9.07-.34,29.7,7.37,38.88,4.22,6.26,11,10.33,18.52,11.08,7.51.75,14.97-1.87,20.36-7.17,5.38-5.3,8.13-12.71,7.49-20.24-2.25-9.32-7.96-17.42-15.99-22.67-25.83-20.65-50.47-42.76-73.8-66.2-11.14-4.06-22.01-8.83-32.54-14.29-8.37-4.59-16.01-10.4-22.67-17.23l-9.41-9.52-.68-.79c-1.93-2.54-3.24-5.49-3.85-8.62-5.48-2.48-10.75-5.4-15.76-8.73l-.57,1.93s-.79,2.27-1.36,3.4h0Z"/>
  <path d="M491.11,826.91c-3.61-1.2-7.53-1.12-11.09.25-3.56,1.37-6.53,3.92-8.41,7.24-1.28,2.45-1.72,5.25-1.25,7.98.47,2.72,1.83,5.22,3.86,7.1h0s9.75,8.73,9.75,8.73c1.14,1.02,2.38,1.81,3.51,2.72-1.08-3.68-1.28-7.57-.56-11.34l4.76-22.67h-.57,0Z"/>
  <path d="M533.06,862.62c-2.63,7.4-8.74,13.04-16.33,15.08,18.11,6.63,36.58,12.23,55.32,16.78,30.58,10.11,58.96,25.92,83.66,46.59,7.91,5.81,13.56,14.19,15.99,23.69h0c1.25,8.96,3.74,29.47,12.58,37.52,5.05,5.63,12.35,8.72,19.91,8.42,7.56-.3,14.59-3.95,19.18-9.96s6.26-13.76,4.56-21.13c-3.6-8.95-10.5-16.17-19.27-20.18-20.97-9.52-109.62-75.73-111.09-76.86-13.28-8.29-27.78-14.45-42.97-18.25-7.12-1.86-14.04-4.44-20.63-7.71v2.49s-.91,2.38-.91,3.51h0Z"/>
  <path d="M29.59,822.71c-1.6,4.8-1.13,10.04,1.3,14.48,2.43,4.43,6.61,7.65,11.51,8.88h5.33c1.17.11,2.34.11,3.51,0h.91c1.38-.41,2.72-.98,3.97-1.7h.79c.97-.63,1.89-1.35,2.72-2.15l.91-.91c1.06-1.13,1.98-2.39,2.72-3.74h0c.45-.9,1.13-2.72,1.13-2.72l1.25-3.85,6.23-18.82c1.17-3.56,3.33-6.71,6.24-9.07l46.14-37.41c-1.74,2.93-3.04,6.1-3.85,9.41v1.14s-6.92,31.74-6.92,31.74l-1.25,5.89c-1.37.08-2.74.27-4.08.57l-1.7.68c-1.54.56-3.03,1.28-4.42,2.15l-2.04,1.7c-1.25,1.01-2.39,2.15-3.4,3.4h0l-1.36,1.7c-1.43,2.05-2.54,4.31-3.29,6.69-1.52,5.39-.91,11.15,1.7,16.1.38.76.83,1.48,1.36,2.15h0s9.41,9.52,9.41,9.52c6.37,6.42,13.67,11.84,21.65,16.1h0c3.29,1.81,7.03,3.74,11.33,5.67l6.8,2.95h.91c7.03,2.95,15.19,6.12,24.83,9.52l22.67,7.59c4.04,1.31,8.02,2.82,11.9,4.53,12.3,5.61,24.06,12.33,35.14,20.07,12.6,8.59,24.57,18.06,35.82,28.34,7.86,6.55,13.16,15.66,14.96,25.73,1.25,9.3,2.04,30.38,10.54,39.22,1.12,1.37,2.37,2.62,3.74,3.74l1.25.91c1.04.76,2.14,1.44,3.29,2.04h0s1.36.68,1.36.68c1.57.72,3.2,1.29,4.87,1.7,1.62.15,3.25.15,4.88,0h6.92c1.76-.43,3.47-1.03,5.1-1.81,5.18-2.25,9.43-6.22,12.03-11.24,2.6-5.02,3.4-10.78,2.25-16.31-.49-2.79-1.36-5.5-2.61-8.05-1.02-2.02-2.32-3.89-3.85-5.55-3.3-3.39-7.13-6.23-11.34-8.39-20.4-11.34-91.71-99.19-146.46-112.46-3.91-.96-7.71-2.32-11.34-4.08-6.06-2.86-11.61-6.69-16.44-11.33h0s1.25-6.69,1.25-6.69l3.29-17c.53-2.69,1.84-5.17,3.74-7.14l122.89-126.75c27.66.11,65.64.91,82.75.91,41.15,1.25,135.35,6.69,196.69,10.43l10.2.57h-.91c-3.11,1.14-5.88,3.06-8.05,5.55l-55.32,69.27c-2.68,3.31-4.58,7.19-5.55,11.34h0s-8.84,42.62-8.84,42.62l-4.19,20.07c-.72,4.02-.08,8.17,1.81,11.79,1.52,2.73,3.74,5.01,6.43,6.6,2.69,1.6,5.75,2.45,8.87,2.47h.91c1.61-.02,3.21-.25,4.76-.68h.91c1.39-.48,2.73-1.13,3.97-1.93h0,.57c1.32-.97,2.5-2.11,3.51-3.4h0l.68-.91c1.04-1.38,1.88-2.91,2.49-4.54h0c.79-.91.79-2.84.79-2.84l.79-4.08,3.63-19.5c.7-3.66,2.43-7.04,4.99-9.75l84.35-90.01-14.85,24.6-10.32,16.66c-2.8,4.49-4.51,9.58-4.99,14.85l-3.51,29.82v5.78h-7.03c-1.4.3-2.75.84-3.97,1.59h-.79c-2.97,2-4.91,5.19-5.33,8.75-.41,3.55.75,7.11,3.18,9.73h0s8.84,9.64,8.84,9.64l2.49,2.38c.4,5.07,2.41,9.88,5.73,13.74,3.33,3.85,7.79,6.55,12.75,7.69h1.02c1.43.13,2.88.13,4.31,0,2.35-.03,4.68-.41,6.92-1.14,16.67,7.83,33.74,14.79,51.13,20.86,29.66,12.94,56.59,31.41,79.35,54.41,7.29,6.53,12.1,15.38,13.6,25.06.91,9.07.91,29.7,8.96,38.54,1.11,1.41,2.36,2.71,3.74,3.85l1.36,2.38c1.11.85,2.28,1.61,3.51,2.27h0l1.02.57c1.56.77,3.19,1.38,4.88,1.81h1.13c1.4.12,2.8.12,4.19,0h6.46c6.17-1.34,11.61-4.95,15.25-10.12,3.63-5.17,5.19-11.51,4.37-17.77-.19-.81-.41-1.6-.68-2.38-2.94-8.2-8.62-15.14-16.1-19.61-5.88-3.72-11.52-7.81-16.89-12.24h0c-4.42-3.74-10.2-8.16-15.76-12.81l-17.34-14.74c-26.41-22.78-52.6-46.59-53.39-47.27-12.4-9.67-26.25-17.32-41.04-22.67-7.01-2.55-13.73-5.82-20.07-9.75h0v-6.46s1.13-18.25,1.13-18.25c.18-2.63,1.13-5.15,2.72-7.26h0l90.69-123.57,42.17-.68c3.57-.1,7.04-1.22,9.99-3.23,2.95-2.01,5.27-4.82,6.68-8.11l42.4-82.75c2.44-4.7,2.72-10.23.79-15.16-1.93-4.93-5.9-8.79-10.88-10.58l-35.37-12.58c-8.97-3.09-18.4-4.66-27.89-4.65h-13.26v-68.02c0-10.43-4.49-20.36-12.31-27.26-7.82-6.9-18.23-10.12-28.58-8.83-10.35,1.29-19.65,6.96-25.54,15.57-.88,1.35-1.68,2.75-2.38,4.19-2.65,5.08-4.05,10.71-4.08,16.44v68.02h-392.02c-8.75.01-17.46,1.08-25.96,3.17h0s-41.83,10.21-41.83,10.21c-4.19.92-7.93,3.26-10.57,6.63-2.65,3.37-4.04,7.56-3.94,11.84v8.39c0,6.83,1.31,13.61,3.85,19.95h0s2.27,5.56,2.27,5.56c-7.59,6.69-16.44,14.85-25.51,22.67-4.42,3.97-8.84,7.82-13.26,11.33l-6.46,5.1c-5.48,4.37-11.24,8.38-17.23,12.02-2.73,1.68-5.66,3.01-8.73,3.97-3.23.68-6.23,2.16-8.73,4.31l-64.28,61.1c-3.25,3.15-5.7,7.04-7.14,11.34l-14.51,41.04-6.8,18.25ZM770.88,972.92c-.15-.56-.15-1.14,0-1.7.24-.36.55-.67.91-.91.48-.11.99-.11,1.47,0,.3.33.53.72.68,1.13l19.61,14.74c.95.63,1.52,1.69,1.52,2.83s-.57,2.21-1.52,2.84l-18.03,9.63c-.52.13-1.07.13-1.59,0-.75-.03-1.47-.31-2.04-.79-.57-.54-.93-1.26-1.02-2.04v-25.73ZM512.52,850.14c2.75,1.01,4.16,4.05,3.17,6.8-.73,2.03-2.61,3.42-4.77,3.52-2.16.1-4.16-1.11-5.07-3.07-.91-1.96-.56-4.27.91-5.86,1.46-1.59,3.73-2.14,5.76-1.39h0ZM299.62,972.24c-.17-.59-.17-1.22,0-1.81.24-.36.55-.67.9-.91.52-.13,1.07-.13,1.59,0,.7.02,1.37.26,1.93.68h0s20.63,14.4,20.63,14.4c1,.65,1.6,1.76,1.6,2.95s-.6,2.3-1.6,2.95l-18.14,10.54c-.56.14-1.14.14-1.7,0-.71-.06-1.38-.34-1.93-.79l-3.29-28ZM706.94,481.82c5.49,0,10.56,2.93,13.3,7.68,2.75,4.75,2.75,10.61,0,15.36-2.74,4.75-7.81,7.68-13.3,7.68h-2.83c-5.11-.88-9.42-4.29-11.46-9.06-2.04-4.76-1.53-10.24,1.35-14.54,2.89-4.3,7.75-6.86,12.93-6.78v-.34ZM646.4,717.05l6.35-10.32c.65-.96,1.45-1.8,2.38-2.49.93-.72,1.92-1.36,2.95-1.93,1.82-1.12,3.53-2.41,5.1-3.85,2.02-1.75,3.95-3.61,5.78-5.55h0l1.25-1.36c4.53-4.99,8.39-9.52,14.4-17.8,6.01-8.28,12.36-17.35,18.25-26.3,9.97-14.96,18.93-29.59,24.71-39.22.4-.69,1.13-1.12,1.93-1.14h.68s3.18.91,3.18.91c6.8,1.6,13.21,4.57,18.82,8.73,5.36,4.19,10.03,9.21,13.83,14.85.44.65.44,1.5,0,2.15h0s-42.97,58.16-42.97,58.16l-4.08,5.44-4.19,5.78-87.07,116.42c-2.88,3.85-4.57,8.46-4.87,13.26h0l-.68,11.33v12.36c.04.72.04,1.44,0,2.15-.61,4.46-3.55,8.25-7.71,9.95-4.16,1.7-8.92,1.05-12.47-1.7-3.55-2.75-5.37-7.19-4.76-11.65h0s2.15-24.94,2.15-24.94l.57-6.58,2.83-32.2c.32-3.5,1.44-6.87,3.29-9.86l40.36-64.62ZM368.66,679.07c-14.85-.57-46.14-.79-72.1-2.27h19.84c5.05.19,9.99-1.45,13.93-4.61,3.94-3.17,6.6-7.65,7.5-12.61h0v-56.68c.62-4.79-.85-9.61-4.04-13.24-3.19-3.63-7.79-5.7-12.62-5.69h-46.59c-23.69,0-20.18,12.69-20.18,20.97.11,2.27.56,8.73,1.13,16.89l-2.49,2.95-3.63,4.42c-8.5,10.09-17,19.61-24.71,27.77l-13.83-34.01v-1.36c-1.75-5.12-2.78-10.46-3.06-15.87v-8.39c-.03-3.36,2.28-6.28,5.55-7.03h0s41.83-10.21,41.83-10.21c7.6-1.87,15.41-2.82,23.24-2.83h478.17c8.22.01,16.38,1.39,24.15,4.08l35.37,12.24c1.93.66,3.48,2.13,4.24,4.02.76,1.9.66,4.03-.27,5.84l-42.06,82.98c-1.14,2.63-3.71,4.35-6.58,4.42h-34.01s11.33,0,11.33,0c3.04-.05,6.01-.99,8.52-2.7,2.52-1.71,4.48-4.12,5.65-6.93l13.95-35.48c1.65-4.19,2.49-8.65,2.49-13.15h0l1.02-28.68c.03-4.94-1.9-9.69-5.36-13.22-3.46-3.52-8.18-5.54-13.12-5.6h-65.98c-3.36-.25-6.69.88-9.21,3.12-2.52,2.24-4.03,5.41-4.17,8.78v23.81h-38.32s-118.69-.79-118.69-.79c-10.43-.05-20.71-2.49-30.04-7.14l-22.67-12.81c-5.81-3.39-12.43-5.16-19.16-5.1h0-69.38c-7.63-.03-15.09,2.22-21.43,6.46-6.04,4.02-13.15,6.16-20.41,6.12h-4.65v6.24s32.42-.57,32.42-.57v2.27c.19,4.46,3.92,7.95,8.39,7.82h77.32c4.47.13,8.2-3.36,8.39-7.82v-2.27h3.97c7.24-.02,14.38,1.65,20.86,4.88l18.82,9.3c5.51,2.71,11.55,4.14,17.69,4.19l108.6.68h48.29v24.94c-8.04,13.33-18.19,25.28-30.04,35.37h-31.63s-31.51-2.27-31.51-2.27h-7.93c-59.75-3.51-167.33-9.86-212.68-11.33l-.11.11ZM125.26,809.55l6.92-31.63c.81-3.58,2.44-6.92,4.76-9.75h0l9.3-12.13,14.85-19.39,27.55-37.29c1.46-2.02,3.66-3.36,6.12-3.74,1.39-.37,2.75-.82,4.08-1.36,8.79-4.87,16.75-11.11,23.58-18.48h0s3.97-3.97,3.97-3.97l3.97-4.08c8.39-8.73,17.23-18.59,25.17-28l.91-1.13,2.95-3.51c9.98-11.33,18.14-21.43,22.67-27.21.47-.57,1.18-.91,1.93-.9h0s1.02,0,1.02,0l3.06,1.36c6.72,2.51,12.86,6.37,18.02,11.34,4.9,4.96,8.99,10.66,12.13,16.89.51.71.51,1.67,0,2.38h0s-37.41,39.11-37.41,39.11l-10.88,11.34-115.06,120.17c-3.38,3.55-5.66,8-6.58,12.81h0s-1.48,7.37-1.48,7.37l-1.48,7.71-1.7,8.73c-.14.73-.33,1.45-.56,2.15-1.2,3.25-3.64,5.89-6.79,7.34-3.15,1.45-6.74,1.58-9.99.37-2.88-1.05-5.28-3.08-6.8-5.74-1.51-2.66-2.04-5.76-1.48-8.77h0l5.78-26.53,1.47-5.44ZM44.88,833.02c-1.3-.59-2.31-1.68-2.8-3.03-.49-1.34-.42-2.83.19-4.12,1.01-1.92,3.07-3.04,5.22-2.83,2.16.2,3.97,1.69,4.6,3.77.62,2.07-.07,4.32-1.75,5.68s-4.02,1.57-5.92.53h.45Z"/>
  <path d="M610.72,848.3c3.11.71,5.06,3.81,4.34,6.92s-3.81,5.06-6.92,4.35-5.06-3.81-4.35-6.92c.71-3.12,3.82-5.06,6.93-4.35Z"/>
  <path d="M130.54,836.54c3.19,0,5.78,2.59,5.78,5.78s-2.59,5.78-5.78,5.78-5.78-2.59-5.78-5.78,2.59-5.78,5.78-5.78Z"/>
  <path d="M820.21,453.37c6.35,18.93,26.19,19.38,38.77,18.82l45.35-1.59c8.57-.31,16.43-4.86,20.97-12.13,0,0-40.7-9.52-62.69-18.48l5.33-19.5,63.26,22.67c3.74-12.02-6.24-24.37-18.14-32.2l-21.77-14.29c-12.9-8.48-28.49-11.88-43.76-9.52-12.28,1.91-22.76,9.88-27.89,21.2h0v5.67h-272.08s-34.92,56.8-38.32,64.5c-2.66,5.32-2.68,11.58-.05,16.92,2.63,5.34,7.59,9.14,13.43,10.29,5.6.39,11.18-.96,15.99-3.85.22,4,3.38,7.2,7.37,7.48h0,104.98c1.27.09,2.55-.11,3.74-.57l6.46-2.61v-12.47c.05-6.64,1.68-13.17,4.76-19.04.56-1.13,1.36-2.27,2.04-3.4l-10.32-5.44c-1.06-.71-2.26-1.17-3.51-1.36h-86.05s9.07-13.26,9.07-13.26l243.05,2.15h0Z"/>
</svg>