<?xml version="1.0" encoding="UTF-8"?>
<svg width="1200pt" height="1200pt" version="1.1" viewBox="0 0 1200 1200" xmlns="http://www.w3.org/2000/svg">
 <path d="m634.2 961.84c-9.9609-53.41-115.93-145.26-246.45-148.75-134.5-3.6133-254.63 102.62-255.53 154.21-0.92578 53.773 55.488 62.148 55.488 62.148 4.1055 0 60.77-0.097656 129.8-0.19141-26.832-21.215-44.398-53.664-44.398-90.457 0-63.875 51.961-115.81 115.82-115.81 63.828 0 115.78 51.938 115.78 115.81 0 36.648-17.461 69-44.125 90.203 66.742-0.085938 119.45-0.17969 119.45-0.17969 36.992-0.054687 62.746-21.07 54.152-66.98z"/>
 <path d="m1125 913.23h-231.57l174.35-190.39c0.99609-0.99609 16.055-17.219 21.539-25.895 21.707-34.715 20.953-76.703 2.4844-110.14-0.046875-0.097656-0.097656-0.22656-0.14453-0.35938-26.258-49.262-82.141-130.87-180.29-172.16-96.863-40.754-151.63-26.23-181.63-13.777-44.617 18.539-73.285 49.117-91.453 77.258-0.097657 0.14453-98.172 171.97-98.172 171.97l-151.37 62.09c-25.992 10.633-38.426 40.355-27.77 66.301 8.0625 19.715 27.047 31.598 47.062 31.598 6.4219 0 12.961-1.2227 19.273-3.8281l167.54-68.711c0.81641-0.3125 1.4297-0.94922 2.1953-1.3438 3.0117-1.3555 5.7734-3.1211 8.4609-5.125 1.3555-0.98438 2.7227-1.8359 3.9844-2.9648 2.5781-2.3516 4.7656-5.125 6.9102-8.0039 0.68359-0.99609 1.668-1.6797 2.3047-2.7109l77.594-124.66v85.414l-97.609 134.81c-17.484 24.133-12.07 57.84 12.059 75.289 9.5508 6.9102 20.594 10.262 31.586 10.262 16.703 0 33.168-7.7383 43.703-22.285l107.86-148.96c6.6953-9.2148 10.246-20.293 10.246-31.645v-75.156c6.9609 3.707 13.895 7.5859 20.617 12.07 14.93 9.9375 29.688 23.578 42.77 36.973l-149.16 245.79c-6.9844 10.488-22.391 28.789-13.754 67.297 5.6055 24.887 34.199 46.859 57.156 46.859h363.23c31.969 0 57.938-25.895 57.938-57.996 0.003906-31.934-25.965-57.879-57.934-57.879z"/>
 <path d="m343.21 506.07h-112.55v-112.5h-101.07v112.5h-112.53v101.07h112.53v112.56h101.07v-112.56h112.55z"/>
 <path d="m599.7 363.57-60.047-44.305-132.32 92.293c-16.465-34.824-25.609-83.785-16.703-121.8 9.2773-39.121 32.93-72 65.352-94.598 38.062-26.531 81.301-34.262 129.71-23.125 48.359 11.062 87.254 37.656 116.44 79.512 6.6953 9.6367 11.797 19.441 16.234 29.293z"/>
 <path d="m539.11 357.11 60.047 44.316 70.957-49.453c-0.80469 35.09-17.363 69.336-48.359 90.949-51.852 36.18-123.23 23.461-159.38-28.43-0.61328-0.86328-0.98438-1.8945-1.5977-2.7852z"/>
 <path d="m478.57 938.79c0-49.488-40.129-89.688-89.641-89.688-49.559 0-89.688 40.199-89.688 89.688 0 49.441 40.129 89.652 89.688 89.652 49.516 0 89.641-40.203 89.641-89.652z"/>
</svg>
