<?xml version="1.0" encoding="UTF-8"?>
<svg width="1200pt" height="1200pt" version="1.1" viewBox="0 0 1200 1200" xmlns="http://www.w3.org/2000/svg">
 <path d="m1196.9 725.88c-2.75-4.207-7.0391-7.168-11.945-8.2422s-10.039-0.17969-14.293 2.4922h-0.73828l9.2852 28.742c1.5586 4.75 1.9609 9.8047 1.1797 14.742 1.3281-1.4727 2.8008-2.6523 4.1289-4.1289l11.055-12.973v0.003906c2.5625-2.7617 4.0938-6.3242 4.3359-10.082 0.24219-3.7617-0.82031-7.4883-3.0078-10.555z"/>
 <path d="m1122.8 772.46c-0.73828-1.4727-1.7695-4.4219-1.7695-4.4219l-0.73828-2.5078c-6.5117 4.3281-13.363 8.125-20.488 11.352-0.79297 4.0664-2.5078 7.8984-5.0117 11.203l-0.88281 1.0312-12.234 12.383c-8.668 8.8828-18.602 16.43-29.48 22.402-13.688 7.0938-27.82 13.297-42.305 18.574-30.328 30.488-62.367 59.23-95.957 86.082-10.43 6.8242-17.863 17.367-20.785 29.48-0.82812 9.7852 2.7422 19.43 9.7383 26.316 7 6.8867 16.699 10.301 26.469 9.3203 9.7695-0.98438 18.594-6.2656 24.078-14.41 10.023-11.941 8.8438-38.766 9.582-50.559 1.4414-12.66 7.2227-24.434 16.363-33.312 28.141-31.016 61.902-56.426 99.496-74.883 23.375-9.2109 46.211-19.742 68.395-31.543-10.434-0.98438-19.652-7.2031-24.469-16.508z"/>
 <path d="m573.25 755.51h-0.73828l6.1914 29.48c0.92578 4.9023 0.67188 9.957-0.73438 14.742 1.4727-1.1797 3.0938-2.2109 4.5703-3.5391l12.676-11.352v0.003906c2.6406-2.4414 4.4023-5.6875 5.0156-9.2305 0.61328-3.543 0.042969-7.1914-1.625-10.375-2.4453-4.3086-6.3086-7.6328-10.934-9.4102-4.625-1.7734-9.7227-1.8867-14.422-0.32031z"/>
 <path d="m518.71 801.94c0-1.4727-1.1797-4.5703-1.1797-4.5703v-3.2422c-8.5742 4.25-17.562 7.6094-26.824 10.023-19.75 4.9375-38.602 12.945-55.867 23.73-1.918 1.4727-117.18 87.559-144.45 99.938-11.406 5.2148-20.375 14.605-25.059 26.238-2.2148 9.582-0.042969 19.656 5.9258 27.473s15.113 12.566 24.941 12.953c9.8242 0.39062 19.316-3.6211 25.883-10.945 11.496-10.465 14.738-37.145 16.363-48.789h-0.003906c3.1562-12.363 10.5-23.254 20.785-30.809 32.113-26.875 69.023-47.434 108.78-60.582 24.371-5.9102 48.387-13.191 71.934-21.812-9.8672-2.6523-17.801-9.9805-21.227-19.605z"/>
 <path d="m1164.5 726.32-18.867-53.359c-1.875-5.5859-5.0586-10.641-9.2852-14.742l-83.578-79.449c-3.2539-2.7891-7.1562-4.7188-11.352-5.6016-3.9844-1.2383-7.7969-2.9688-11.348-5.1562-7.7969-4.7266-15.281-9.9453-22.406-15.625l-8.4023-6.6328c-5.75-4.5703-11.496-9.582-17.246-14.738-11.793-10.172-23.289-20.785-33.164-29.48l2.9492-7.2227-0.003906-0.003906c3.3125-8.2461 5.0156-17.055 5.0117-25.941v-10.91c0.13281-5.5703-1.6797-11.012-5.1211-15.398-3.4414-4.3828-8.3008-7.4336-13.746-8.625l-54.391-13.266v-0.003906c-11.047-2.7188-22.379-4.1055-33.754-4.125h-509.72v-88.441c-0.042969-7.4453-1.8633-14.773-5.3047-21.375-0.91406-1.8828-1.9453-3.7031-3.0938-5.4531-7.6562-11.199-19.75-18.574-33.211-20.25-13.461-1.6797-26.992 2.5039-37.164 11.48-10.168 8.9766-15.996 21.887-16.004 35.449v88.441h-17.246c-12.34-0.015625-24.594 2.0273-36.262 6.043l-45.988 16.363c-6.4805 2.3281-11.637 7.3438-14.152 13.754-2.5117 6.4102-2.1367 13.594 1.0312 19.707l55.129 107.6c1.8281 4.2695 4.8398 7.9258 8.6797 10.539 3.8398 2.6133 8.3477 4.0703 12.988 4.2031l54.832 0.88281 117.92 160.67h0.003906c2.0664 2.7344 3.2969 6.0117 3.5352 9.4336l1.4727 23.73v8.4023h0.003906c-8.2383 5.1172-16.98 9.3633-26.09 12.68-19.23 6.957-37.238 16.906-53.359 29.48-1.0312 0.88281-35.082 31.84-69.426 61.465l-22.551 19.164c-7.2227 6.043-14.738 11.793-20.488 16.656h-0.003906c-6.9805 5.7617-14.316 11.078-21.965 15.918-9.7188 5.8203-17.113 14.832-20.93 25.5-0.34766 1.0156-0.64453 2.0508-0.88672 3.0977-1.0742 8.1406 0.95312 16.387 5.6758 23.105 4.7266 6.7148 11.801 11.41 19.828 13.152h8.4023c1.8125 0.15234 3.6367 0.15234 5.4531 0h1.4727c2.1875-0.56641 4.3125-1.3594 6.3398-2.3555l1.3281-0.73828h-0.003906c1.6016-0.85547 3.1289-1.8438 4.5703-2.9492l1.7695-3.0938c1.793-1.4922 3.4258-3.1758 4.8633-5.0117 10.465-11.496 10.465-38.324 11.645-50.117 1.9609-12.574 8.2109-24.086 17.688-32.578 29.598-29.914 64.613-53.922 103.18-70.75 22.609-7.8906 44.801-16.945 66.477-27.125 2.9102 0.9375 5.9375 1.4336 8.9922 1.4766 1.8633 0.16797 3.7383 0.16797 5.6016 0h1.3281c6.4453-1.4844 12.25-4.9883 16.574-9.9961 4.3203-5.0117 6.9297-11.27 7.4492-17.863l3.2422-3.0938 11.496-12.527 0.003906-0.003906c3.1602-3.4141 4.668-8.0391 4.1289-12.656-0.53906-4.6211-3.0703-8.7734-6.9297-11.371h-1.0312c-1.5898-0.97266-3.3359-1.6719-5.1602-2.0625h-9.1367v-7.5156l-4.5703-38.77c-0.62891-6.8516-2.8516-13.465-6.4883-19.309l-13.414-21.668-19.309-31.988 109.67 117.04c3.3281 3.5195 5.5781 7.918 6.4844 12.676l4.7188 25.352 1.0312 5.3047s0 2.5039 1.0312 3.6836v0.003906c0.79297 2.1133 1.8867 4.0977 3.2422 5.8984l0.88281 1.1797h0.003906c1.3164 1.6719 2.8555 3.1602 4.5703 4.4219h0.73828-0.003907c1.6133 1.0391 3.3477 1.8789 5.1602 2.5039h1.1797c2.0156 0.56641 4.0977 0.86328 6.1914 0.88672h1.1797c4.0625-0.035157 8.043-1.1406 11.539-3.2148 3.4961-2.0703 6.3789-5.0312 8.3594-8.5781 2.4688-4.707 3.3008-10.102 2.3594-15.332l-5.4531-26.09-11.496-55.422h-0.003906c-1.2695-5.3945-3.7383-10.434-7.2227-14.742l-71.934-90.062c-2.8203-3.25-6.4219-5.7344-10.465-7.2227h-1.1797l13.266-0.73828c79.746-4.8633 202.23-11.941 255.74-13.562 22.258 0 71.637-1.0312 107.6-1.1797l159.79 164.8c2.4766 2.5625 4.168 5.7891 4.8633 9.2852l4.2734 22.109 1.6211 8.6953v0.003907c-6.2773 6.0391-13.496 11.016-21.371 14.738-4.7109 2.2891-9.6523 4.0664-14.742 5.3086-71.195 17.246-163.91 131.48-190.44 146.22-5.4766 2.8086-10.453 6.4922-14.742 10.906-2 2.1602-3.6875 4.5898-5.0117 7.2227-1.6172 3.3125-2.7578 6.8359-3.3906 10.465-1.4883 7.1953-0.45312 14.684 2.9297 21.207 3.3789 6.5234 8.9062 11.684 15.645 14.613 2.1211 1.0156 4.3477 1.8047 6.6328 2.3594h8.9922c2.1094 0.19531 4.2305 0.19531 6.3398 0 2.1797-0.52734 4.3008-1.2695 6.3359-2.2109l1.7695-0.88281v-0.003907c1.4883-0.77734 2.918-1.6641 4.2734-2.6523l1.6211-1.1797c1.7852-1.4531 3.4141-3.082 4.8672-4.8633 11.055-11.496 12.086-38.914 13.707-51 2.3516-13.094 9.2422-24.941 19.457-33.461 14.633-13.371 30.199-25.688 46.578-36.852 14.41-10.062 29.707-18.793 45.695-26.09 5.0547-2.2266 10.223-4.1914 15.477-5.8945l29.48-9.875c12.527-4.4219 23.141-8.5508 32.281-12.383h1.1797l8.8438-3.832c5.6016-2.5039 10.465-5.0117 14.738-7.3711h0.003906c10.375-5.5352 19.863-12.59 28.152-20.934l12.234-12.383v0.003906c0.6875-0.87109 1.2773-1.8086 1.7695-2.8008 3.3984-6.4336 4.1914-13.93 2.2109-20.934-0.97266-3.0977-2.4141-6.0312-4.2773-8.6953l-1.7695-2.2109h0.003906c-1.3164-1.625-2.7969-3.1094-4.4219-4.4219l-2.6562-2.2109c-1.8086-1.1328-3.7383-2.0742-5.7461-2.8008l-2.2109-0.88281c-1.75-0.38672-3.5234-0.63281-5.3086-0.73828l-1.6211-7.6641-8.9922-41.273v-1.4766c-1.0586-4.3008-2.7461-8.4219-5.0117-12.234l59.992 48.645c3.7812 3.0703 6.5938 7.1641 8.1094 11.793l8.1055 24.469 1.6211 5.0117s0.88281 2.3594 1.4727 3.5391l0.003907-0.003907c0.96484 1.7656 2.1562 3.4023 3.5352 4.8672l1.1797 1.1797c1.0859 1.043 2.2734 1.9805 3.5391 2.8008h1.0312c1.6289 0.93359 3.3594 1.6758 5.1602 2.2109h1.1797c1.5195 0.14453 3.0469 0.14453 4.5664 0h6.9297c6.3789-1.5938 11.805-5.7773 14.969-11.543 3.1602-5.7656 3.7734-12.586 1.6875-18.824zm-955.02 252.5c-0.10938 1.0117-0.58203 1.9531-1.3242 2.6523-0.74609 0.625-1.6797 0.98828-2.6562 1.0312-0.67578 0.16406-1.3828 0.16406-2.0625 0l-23.438-12.527c-1.2344-0.82031-1.9766-2.2031-1.9766-3.6875 0-1.4805 0.74219-2.8633 1.9766-3.6836l25.5-19.164c0.19531-0.54297 0.49609-1.0469 0.88672-1.4727 0.62891-0.14062 1.2852-0.14062 1.9141 0 0.46875 0.3125 0.86719 0.71094 1.1797 1.1797 0.19531 0.72266 0.19531 1.4883 0 2.2109zm335.93-193.1c2.6367-0.96875 5.5938-0.25391 7.4922 1.8125 1.9023 2.0664 2.3672 5.0742 1.1797 7.6172-1.1875 2.5469-3.793 4.1211-6.5977 3.9922-2.8008-0.12891-5.25-1.9375-6.1992-4.5781-1.2891-3.582 0.55469-7.5312 4.125-8.8438zm272.55 195.16c-0.71094 0.58984-1.5859 0.94922-2.5039 1.0312-0.72656 0.1875-1.4883 0.1875-2.2109 0l-23.586-13.707c-1.2969-0.84375-2.082-2.2852-2.082-3.832s0.78516-2.9922 2.082-3.832l26.828-18.719v-0.003906c0.72266-0.54297 1.5977-0.85156 2.5039-0.88281 0.67969-0.16406 1.3867-0.16406 2.0664 0 0.46094 0.3125 0.86328 0.71484 1.1758 1.1797 0.21484 0.76953 0.21484 1.5859 0 2.3594zm-525.34-673.63c6.7344-0.09375 13.062 3.2266 16.816 8.8203 3.75 5.5977 4.4141 12.715 1.7617 18.906-2.6523 6.1953-8.2539 10.629-14.895 11.777h-3.6836c-7.1367 0-13.73-3.8047-17.297-9.9844-3.5703-6.1797-3.5703-13.793 0-19.973 3.5664-6.1797 10.16-9.9883 17.297-9.9883zm131.19 389.44c2.3984 3.8867 3.8633 8.2773 4.2734 12.824l3.6836 41.863 0.73828 8.5508 2.8008 32.43v-0.003906c0.78906 5.793-1.5703 11.566-6.1914 15.148-4.6211 3.5781-10.801 4.4219-16.215 2.2109-5.4102-2.2148-9.2305-7.1445-10.02-12.938-0.050781-0.93359-0.050781-1.8672 0-2.8008v-16.066l-0.88281-14.738h-0.003906c-0.39844-6.2422-2.5977-12.234-6.3359-17.246l-113.21-151.38-5.4531-7.5156-5.3047-7.0742-55.867-75.617v-0.003906c-0.57031-0.84766-0.57031-1.9531 0-2.8008 4.9453-7.3398 11.016-13.855 17.984-19.309 7.2969-5.4141 15.621-9.2734 24.469-11.352l4.1289-1.1797h0.88281c1.0352 0.019532 1.9844 0.57813 2.5039 1.4766 7.5156 12.527 19.164 31.543 32.133 51 7.6641 11.645 15.918 23.438 23.73 34.199 7.8125 10.762 12.824 16.656 18.719 23.141l1.6211 1.7695h0.003906c2.3828 2.5312 4.8906 4.9414 7.5195 7.2227 2.0469 1.875 4.2695 3.5508 6.6328 5.0117 1.3398 0.73047 2.625 1.5664 3.832 2.5039 1.2031 0.90234 2.25 2 3.0938 3.2422l8.2539 13.414zm308.51-133.55c-58.961 1.918-198.84 10.172-276.53 14.738h-10.316l-40.977 2.9492h-41.125c-15.414-13.121-28.605-28.652-39.062-45.988v-32.43h62.793l141.21-0.88281c7.9766-0.066406 15.836-1.9297 22.996-5.4531l24.469-12.086c8.4219-4.1953 17.711-6.3672 27.121-6.3398h5.1602v2.9492c0.23828 5.8047 5.0977 10.336 10.906 10.168h100.53c5.8086 0.16797 10.668-4.3633 10.91-10.168v-2.9492l42.156 0.73828v-8.1055l-6.043-0.003906c-9.4414 0.046875-18.68-2.7266-26.535-7.957-8.2422-5.5117-17.941-8.4375-27.859-8.4023h-90.211 0.003906c-8.75-0.070312-17.355 2.2227-24.914 6.6328l-29.48 16.656c-12.133 6.0469-25.5 9.2266-39.059 9.2852l-154.33 1.0312h-49.824v-30.953c-0.1875-4.3828-2.1445-8.5039-5.4219-11.422-3.2773-2.9141-7.5977-4.3789-11.973-4.0547h-85.789c-6.4219 0.078126-12.555 2.6953-17.059 7.2773-4.5 4.5859-7.0039 10.766-6.9648 17.191l1.3281 37.293h-0.003906c0 5.8516 1.1016 11.652 3.2422 17.098l18.133 46.137c1.5195 3.6562 4.0703 6.7852 7.3438 9.0117 3.2734 2.2266 7.125 3.4492 11.082 3.5156h14.738-44.219c-3.7266-0.089844-7.0625-2.332-8.5508-5.7461l-54.688-107.9c-1.2109-2.3594-1.3398-5.1289-0.35156-7.5938 0.99219-2.4609 3.0039-4.3711 5.5117-5.2305l45.988-15.918c10.102-3.5 20.711-5.293 31.398-5.3086h621.74c10.184 0.011718 20.328 1.25 30.215 3.6836l54.391 13.266 0.003906 0.003906c4.2539 0.96875 7.2617 4.7734 7.2227 9.1367v10.91c-0.37109 7.0273-1.7109 13.973-3.9805 20.633v1.7695l-17.984 44.219c-10.023-10.613-21.078-22.996-32.133-36.113l-4.7188-5.75-3.2422-3.832c0.73828-10.613 1.3281-19.016 1.4727-21.965 0-10.762 4.5703-27.27-26.238-27.27l-60.578 0.003906c-6.2812-0.007812-12.262 2.6875-16.41 7.4023-4.1484 4.7148-6.0664 10.988-5.2578 17.215v73.699 0.003906c1.1641 6.4609 4.625 12.285 9.7461 16.402 5.1172 4.1172 11.547 6.2461 18.113 6h25.797c-33.758 1.918-74.441 2.2109-93.75 2.9492zm318.54 176.88 7.5156 34.492h0.003906c0.72656 3.9102 0.046875 7.9531-1.9219 11.406-1.9727 3.4531-5.1016 6.0977-8.8398 7.4609-4.2227 1.5703-8.8945 1.3984-12.988-0.48438-4.0938-1.8789-7.2695-5.3125-8.8281-9.5391-0.30469-0.91406-0.55078-1.8516-0.73438-2.8008l-2.2109-11.352-1.918-10.023-1.918-9.582 0.003907 0.003906c-1.1914-6.2578-4.1602-12.039-8.5508-16.656l-149.61-156.25-14.148-14.742-48.645-50.855v0.003907c-0.66406-0.92578-0.66406-2.1719 0-3.0977 4.0781-8.0977 9.3984-15.508 15.773-21.961 6.7188-6.4648 14.695-11.484 23.434-14.742l3.9805-1.7695h1.3281v0.003906c0.96875-0.003906 1.8867 0.42969 2.5039 1.1758 5.8945 7.5156 16.508 20.637 29.48 35.375l3.832 4.5703 1.1797 1.4727c10.316 12.234 21.816 25.059 32.723 36.41l5.1602 5.3047 5.1602 5.1602v0.003907c8.8828 9.582 19.23 17.691 30.66 24.023 1.7305 0.70312 3.5 1.293 5.3047 1.7695 3.1992 0.49219 6.0664 2.2461 7.9609 4.8672l35.816 48.492 19.309 25.207 12.086 15.773h0.003907c3.0195 3.6836 5.1406 8.0273 6.1914 12.676l8.9922 41.125zm103.18 23.438h0.003907c-2.4688 1.3555-5.5078 1.082-7.6953-0.6875s-3.0859-4.6914-2.2734-7.3828c0.8125-2.6953 3.1719-4.6328 5.9766-4.8984 2.8008-0.26562 5.4844 1.1875 6.793 3.6836 0.79688 1.6758 0.89062 3.6055 0.25 5.3516-0.63672 1.75-1.9492 3.1641-3.6406 3.9336z"/>
 <path d="m426.73 788.98c0.92578 4.0469-1.6055 8.0781-5.6523 9.0039s-8.0781-1.6055-9.0039-5.6523 1.6016-8.0781 5.6484-9.0039 8.082 1.6016 9.0078 5.6523z"/>
 <path d="m1049.6 775.55c0 4.1523-3.3633 7.5195-7.5156 7.5195-4.1523 0-7.5195-3.3672-7.5195-7.5195 0-4.1523 3.3672-7.5156 7.5195-7.5156 4.1523 0 7.5156 3.3633 7.5156 7.5156z"/>
 <path d="m145.34 269.82 316.03-2.8008 11.793 17.246h-111.88c-1.6328 0.25-3.1914 0.85156-4.5664 1.7695l-13.414 7.0742c0.88281 1.4727 1.918 2.9492 2.6523 4.4219 4.0078 7.6406 6.1328 16.133 6.1914 24.762v16.215l8.4023 3.3906c1.5469 0.59766 3.207 0.85156 4.8633 0.73828h136.5-0.003906c5.1914-0.36328 9.2969-4.5352 9.582-9.7305 6.25 3.7656 13.508 5.5156 20.785 5.0117 7.5898-1.4844 14.051-6.4336 17.465-13.375 3.4141-6.9414 3.3867-15.082-0.070313-22-4.4219-10.023-49.82-83.871-49.82-83.871h-353.77v-7.3711h-0.003906c-6.6641-14.715-20.297-25.078-36.258-27.562-19.848-3.0625-40.121 1.3477-56.898 12.379l-28.301 18.574c-15.477 10.172-28.449 26.238-23.586 41.863l82.25-29.48 6.9297 25.352c-28.598 11.645-81.516 24.027-81.516 24.027 5.9102 9.457 16.129 15.363 27.27 15.77l58.961 2.0625c16.363 0.73828 42.156 0.15234 50.414-24.465z"/>
</svg>
