<?xml version="1.0" encoding="UTF-8"?>
<svg width="1200pt" height="1200pt" version="1.1" viewBox="0 0 1200 1200" xmlns="http://www.w3.org/2000/svg">
 <path d="m231 836.34v14.391c1.9688 3.75 10.312 16.359 29.062 17.25-0.28125-6.1406-0.1875-12.422 0.46875-18.75-12.797-0.32812-23.531-5.3438-29.531-12.891z"/>
 <path d="m317.44 410.53 185.44 106.27 2.7188-108.05-177.05-53.109c-2.7188 4.3594-8.0625 10.406-17.906 15.703l128.9 70.359-122.06-53.953z"/>
 <path d="m319.13 347.26v-53.344l-6.9375-4.6875c-6.75 6.75-22.219 19.828-44.109 25.828-4.5 20.25-13.031 38.531-24 54.844 61.031 2.8594 73.406-18.844 75.047-22.641z"/>
 <path d="m391.31 262.64 104.44-92.625c1.6875-6 1.2188-10.734-1.4062-14.344-5.5781-7.6875-19.969-9.8438-26.531-10.125-58.359 27.562-142.36 79.828-169.87 97.219 0.375 1.125 7.6875 21.891 7.6875 21.891 20.25 7.4062 66.562 1.4531 85.688-2.0156z"/>
 <path d="m305.16 373.87c-11.344 4.875-27.469 8.5312-50.531 8.5312-3.9375 0-8.2031-0.1875-12.562-0.375v36.375c28.266 11.531 54.188 3.5156 63.141 0v-44.531z"/>
 <path d="m285 822.74c0-7.7344-10.688-14.25-23.391-14.25-12.656 0-23.391 6.5625-23.391 14.25 0 7.7344 10.688 14.25 23.391 14.25 12.703 0.046874 23.391-6.4688 23.391-14.25z"/>
 <path d="m882.56 410.53v-22.781l-122.06 53.953 128.9-70.359c-9.8438-5.25-15.188-11.344-17.906-15.703l-175.87 52.734 2.7188 107.72z"/>
 <path d="m938.39 808.5c-12.703 0-23.391 6.5625-23.391 14.25 0 7.7344 10.688 14.25 23.391 14.25 12.656 0 23.391-6.5156 23.391-14.25 0-7.6875-10.734-14.25-23.391-14.25z"/>
 <path d="m808.69 262.64c19.172 3.4688 65.484 9.375 85.688 2.0156 0 0 7.3125-20.766 7.6875-21.891-27.562-17.438-111.52-69.656-169.87-97.219-6.5625 0.28125-21 2.4375-26.531 10.125-2.625 3.6562-3.0938 8.3438-1.4062 14.344z"/>
 <path d="m929.16 273.05c12.375 6.4219 27.328 4.4062 31.688-4.0312 4.5-8.7188-2.3438-21.656-15-28.219-4.9688-2.5781-10.359-3.9844-15.469-3.9844-7.5 0-13.594 3-16.219 8.0156-4.5 8.7188 2.3438 21.656 15 28.219z"/>
 <path d="m969 850.74v-14.391c-6 7.5469-16.781 12.562-29.531 12.844 0.65625 6.375 0.75 12.609 0.46875 18.797 18.75-0.79688 27.094-13.547 29.062-17.25z"/>
 <path d="m929.63 301.55c-0.65625-5.1562-1.0312-10.406-1.125-15.75-1.6406-0.60938-3.375-1.0312-4.9219-1.875-7.5938-3.9375-13.453-9.5625-17.438-15.797l-5.5312 15.188c-0.046875 0 14.672 13.125 29.016 18.234z"/>
 <path d="m887.81 289.22-6.9375 4.6875v53.344c1.5 3.5156 13.688 25.5 75.047 22.594-10.969-16.312-19.5-34.594-24-54.844-21.891-6-37.359-19.031-44.109-25.781z"/>
 <path d="m894.84 373.87v44.531c8.9531 3.5625 34.828 11.531 63.141 0v-36.375c-4.3594 0.1875-8.625 0.375-12.562 0.375-23.156 0-39.234-3.6562-50.578-8.5312z"/>
 <path d="m600.56 766.97h50.016l8.1562-179.53v-268.18l-21.984-19.688h-72.328l-21.984 19.688v268.4l8.1562 179.29z"/>
 <path d="m897.37 844.26-125.02-87.375 135.14 79.5c0.046875-0.046875 0.14062-0.09375 0.1875-0.1875-3.0938-3.9375-4.9688-8.4844-4.9688-13.453 0-4.125 1.3125-7.9219 3.4688-11.391l-178.69-161.63-3.9844 135.84 148.22 79.969c9.0469-7.9219 18.188-15.422 25.641-21.281z"/>
 <path d="m681.66 339.79-10.688-9.5625v257.44l-7.875 173.9c10.5-5.5312 20.672-7.2656 30.422-5.0625 7.6406 1.7344 13.688 5.6719 18.328 9.8438l4.875-165.1-30.094-65.625z"/>
 <path d="m927 847.82c-3.4688-0.84375-6.7031-2.0156-9.5625-3.5625-10.969 8.25-47.625 36.516-63.75 56.719-17.812 22.359-77.906 120.47-87.141 135.61 1.2188 5.0156 6.4688 17.906 28.594 17.906h1.2656l105.52-106.73c-0.14062-0.046875 31.312-49.219 25.078-99.938z"/>
 <path d="m981.24 852.14c0 0.84375-0.1875 1.6406-0.46875 2.3906-3.8906 9.1875-17.438 25.406-41.859 25.781-4.5 33.656-19.406 61.594-25.219 71.344 54.656 6.75 68.484-32.25 70.219-38.156v-67.312l-2.6719-0.70312z"/>
 <path d="m276.47 283.92c-1.5938 0.79688-3.2812 1.2188-4.9219 1.875-0.09375 5.3906-0.51562 10.594-1.125 15.75 14.297-5.1094 29.016-18.234 29.016-18.234l-5.5312-15.188c-3.9844 6.2812-9.8438 11.859-17.438 15.797z"/>
 <path d="m690.71 768.47c-9.0938-2.0625-19.453 1.125-30.562 9.5156l-0.09375-0.09375c-1.0312 0.75-2.25 1.3125-3.6094 1.3125h-111.66c-1.4062 0-2.625-0.51562-3.6562-1.3125l-0.046875 0.09375c-11.109-8.3906-21.422-11.625-30.562-9.5156-11.484 2.5781-18.562 12.703-20.625 16.125l0.32812 11.25 34.453 12.469h151.92l34.406-12.516 0.32812-11.25c-2.1094-3.4219-9.1875-13.547-20.625-16.078z"/>
 <path d="m1098.9 648.14-117.75 107.48-22.781 45.094c6.7031 3.3281 11.578 8.3906 13.969 14.344l84.844-25.875 72.938-120.94c-4.5-19.172-24.562-20.344-31.219-20.109z"/>
 <path d="m1137 448.97c-14.109-27.562-121.78-118.69-176.76-162.98l0.375-0.46875c-4.5938 2.3906-10.031 3.75-15.938 3.75-1.2656 0-2.5312-0.375-3.8438-0.51562 4.9219 116.48 161.06 175.36 162.71 175.97 11.062 2.0625 30.844 2.7656 35.391-3.2344 2.2031-2.9531 0.14062-8.3906-1.9219-12.516z"/>
 <path d="m538.13 761.58-7.875-173.58v-257.72l-10.688 9.5625-5.5312 198.28-29.531 63.188 4.8281 165.1c4.6406-4.1719 10.688-8.1094 18.328-9.8438 9.75-2.25 19.969-0.5625 30.469 5.0156z"/>
 <path d="m255.37 277.03c5.1094 0 10.5-1.3594 15.469-3.9844 12.656-6.5625 19.5-19.5 14.953-28.219-2.5781-5.0156-8.6719-8.0156-16.172-8.0156-5.1562 0-10.5 1.4062-15.469 3.9844-12.656 6.5625-19.5 19.5-14.953 28.219 2.5312 4.9688 8.5781 8.0156 16.172 8.0156z"/>
 <path d="m241.6 800.72-22.781-45.094-117.75-107.44c-6.4219 0.09375-26.719 1.0312-31.219 20.062l72.938 120.94 84.844 25.875c2.4375-5.9531 7.3125-11.016 13.969-14.344z"/>
 <path d="m97.406 464.44c0.65625-0.32812 156.84-59.297 161.76-175.69-1.2656 0.09375-2.5312 0.51562-3.8438 0.51562-5.9531 0-11.391-1.3125-15.938-3.75l0.375 0.46875c-54.984 44.297-162.66 135.42-176.76 162.98-2.1094 4.125-4.125 9.5625-1.9219 12.516 4.5469 6.0469 24.375 5.2969 36.328 2.9531z"/>
 <path d="m293.76 811.36c2.1562 3.4688 3.4688 7.3125 3.4688 11.391 0 4.9688-1.875 9.5625-4.9688 13.453 0.046875 0.046875 0.14062 0.09375 0.1875 0.1875l135.14-79.5-125.02 87.375c7.5 5.9062 16.641 13.359 25.641 21.281l149.34-80.625-3.9844-136.26z"/>
 <path d="m219.28 854.53c-0.32812-0.75-0.46875-1.5469-0.46875-2.3906v-6.6562l-2.6719 0.70312v67.312c1.7812 5.9531 15.891 44.906 70.359 38.156-6.375-10.688-20.906-38.25-25.312-71.297-24.469-0.42188-38.062-16.641-41.906-25.828z"/>
 <path d="m282.56 844.26c-2.9062 1.5-6.0938 2.7188-9.6094 3.5625-6.2344 51.047 25.547 100.36 25.875 100.88l104.72 105.8h1.2656c22.125 0 27.375-12.844 28.594-17.906-9.2812-15.141-69.328-113.25-87.141-135.61-16.078-20.203-52.734-48.422-63.703-56.719z"/>
</svg>
