<?xml version="1.0" encoding="UTF-8"?>
<svg width="1200pt" height="1200pt" version="1.1" viewBox="0 0 1200 1200" xmlns="http://www.w3.org/2000/svg">
 <path d="m140.2 908.4c1.5664 37.195 14.688 72.973 37.527 102.37 22.844 29.391 54.277 50.934 89.934 61.633 10.406 34.305 30.82 64.719 58.621 87.348 27.805 22.629 61.73 36.438 97.434 39.664 35.699 3.2227 71.551-4.2852 102.96-21.562 31.41-17.281 56.941-43.547 73.328-75.426 21.137 41.078 57.254 72.457 100.89 87.645 43.629 15.188 91.43 13.02 133.5-6.0586 42.074-19.078 75.203-53.602 92.531-96.43 2-4.8203 3.5195-9.6602 5.1016-14.559l0.17969-0.64062h-0.003906c35.684-10.672 67.148-32.203 90.02-61.598 22.871-29.398 36.008-65.191 37.582-102.4 29.535-12 54.836-32.52 72.68-58.941 17.84-26.422 27.422-57.555 27.52-89.438 0.16406-42.102-16.461-82.535-46.199-112.34 19.617-29.871 28.645-65.461 25.633-101.07-3.0078-35.609-17.879-69.18-42.234-95.332 1.8672-10.316 2.8047-20.777 2.8008-31.262 0.050781-38.98-12.57-76.922-35.961-108.1-23.391-31.184-56.281-53.918-93.719-64.777 16.754-39.234 11.418-84.41-14.012-118.66-25.426-34.25-67.129-52.426-109.53-47.742-14.426-30.793-39.57-55.285-70.73-68.898-31.164-13.617-66.215-15.422-98.613-5.0859-32.395 10.34-59.922 32.117-77.438 61.266-17.523-29.145-45.055-50.918-77.453-61.246-32.402-10.332-67.453-8.5156-98.613 5.1055s-56.297 38.121-70.715 68.922c-42.41-4.707-84.133 13.465-109.57 47.727-25.438 34.258-30.773 79.453-14.004 118.69-37.414 10.867-70.289 33.594-93.668 64.758-23.383 31.164-36.008 69.082-35.973 108.04-0.003906 10.496 0.92969 20.969 2.7812 31.301-24.344 26.152-39.211 59.715-42.215 95.316-3.0078 35.602 6.0195 71.18 25.633 101.04-29.738 29.805-46.363 70.238-46.199 112.34 0.09375 31.887 9.6719 63.023 27.516 89.449s43.145 46.945 72.684 58.949zm-14.66-242.26c0.19922-0.16016 0.30078-0.42188 0.5-0.57812v-0.003906c6.9609-5.4883 14.516-10.184 22.52-14 6.1797-3.2148 10.238-9.418 10.715-16.367 0.47656-6.9531-2.6953-13.648-8.3789-17.68-5.6797-4.0312-13.051-4.8164-19.453-2.0703-4.6094 2.2148-9.1016 4.668-13.461 7.3398-11.801-18.809-18.035-40.578-17.98-62.781-0.039062-33.203 13.785-64.914 38.141-87.48 0.26172-0.23828 0.42188-0.55859 0.66016-0.80078 17.73-16.438 40.059-27.07 64-30.48 7.0781-1.0117 13.074-5.7266 15.734-12.363s1.5781-14.188-2.8398-19.809c-4.418-5.6211-11.496-8.4609-18.574-7.4453-20.141 3.0156-39.508 9.8867-57.043 20.238 0.023437-0.64062-0.078125-1.2383-0.078125-1.8594-0.050781-32.488 11.234-63.973 31.902-89.035 20.672-25.062 49.434-42.129 81.336-48.266 10.992 11.57 24.164 20.852 38.762 27.301 2.5156 1.1211 5.2461 1.6953 8 1.6797 6.168-0.007813 11.988-2.8594 15.77-7.7305 3.7852-4.8711 5.1094-11.215 3.5898-17.195-1.5156-5.9766-5.7109-10.918-11.359-13.395-12.176-5.3594-22.84-13.645-31.039-24.121-0.10156-0.14062-0.14063-0.28125-0.23828-0.42188l-0.003906 0.003906c-10.867-13.949-16.75-31.137-16.719-48.82 0-21.219 8.4297-41.566 23.43-56.57 15.004-15 35.352-23.43 56.57-23.43h1.6797c-1.0352 6.6172-1.5977 13.301-1.6797 20 0.011719 7.8164 0.67969 15.617 2 23.32 0.78125 4.6484 3.1836 8.8711 6.7773 11.926 3.5938 3.0508 8.1484 4.7344 12.863 4.7539 1.1172-0.003906 2.2344-0.097656 3.3398-0.28125 5.2305-0.87891 9.8945-3.8008 12.969-8.1211 3.0781-4.3242 4.3125-9.6875 3.4297-14.918-0.92188-5.5117-1.3828-11.09-1.3789-16.68 0-35.727 19.059-68.738 50-86.602 30.941-17.863 69.059-17.863 100 0 30.941 17.863 50 50.875 50 86.602v100c0 7.1445 3.8125 13.746 10 17.32 6.1875 3.5742 13.812 3.5742 20 0 6.1875-3.5742 10-10.176 10-17.32v-100c0.035156-27.953 11.77-54.617 32.359-73.527s48.152-28.336 76.008-25.996c27.859 2.3398 53.465 16.23 70.609 38.309 17.148 22.078 24.27 50.324 19.645 77.895-0.88281 5.2305 0.35156 10.594 3.4297 14.918 3.0742 4.3203 7.7383 7.2422 12.969 8.1211 1.1055 0.18359 2.2227 0.27734 3.3398 0.28125 4.7266-0.003906 9.2969-1.6836 12.902-4.7383 3.6055-3.0508 6.0156-7.2812 6.7969-11.941 1.3008-7.707 1.9492-15.508 1.9414-23.32-0.082031-6.6992-0.64453-13.383-1.6797-20h1.6797c27.012 0.015625 52.195 13.66 66.957 36.281 14.762 22.625 17.109 51.168 6.2422 75.898-1.6133 3.8711-3.6211 7.5664-6 11.02-0.41016 0.58984-0.78516 1.2031-1.1211 1.8398l-0.82031 1.4414h0.003907c-0.6875 0.73047-1.3164 1.5117-1.8828 2.3398l-0.19922 0.16016c-8.1289 10.598-18.828 18.945-31.078 24.258-5.6719 2.4531-9.8945 7.3867-11.438 13.371-1.543 5.9805-0.23047 12.344 3.5508 17.23 3.7773 4.8867 9.6055 7.75 15.785 7.7617 2.75 0.023438 5.4766-0.53125 8-1.6211 14.648-6.3789 27.848-15.668 38.801-27.301 31.898 6.1445 60.656 23.219 81.316 48.285 20.664 25.062 31.938 56.551 31.883 89.035 0 0.62109-0.10156 1.2188-0.12109 1.8398-17.539-10.434-36.961-17.312-57.16-20.238-7-0.81641-13.914 2.1094-18.199 7.707-4.2812 5.5977-5.3047 13.039-2.6875 19.582 2.6172 6.543 8.4844 11.23 15.449 12.328 24.066 3.4062 46.496 14.164 64.219 30.801 0.14062 0.14062 0.19922 0.35938 0.35938 0.5 24.355 22.566 38.18 54.277 38.141 87.48 0.046875 22.199-6.1953 43.957-18 62.762-4.3594-2.6758-8.8516-5.125-13.461-7.3398-6.4023-2.7461-13.773-1.9648-19.453 2.0664-5.6836 4.0352-8.8594 10.73-8.3828 17.68 0.47656 6.9531 4.5391 13.152 10.719 16.371 8.0039 3.8164 15.555 8.5117 22.52 14 0.19922 0.16016 0.30078 0.42188 0.5 0.57813v0.003906c28.891 22.559 45.711 57.223 45.559 93.879-0.10156 21.719-6.0781 43.008-17.289 61.609-11.215 18.598-27.25 33.82-46.41 44.051-3.625-19.555-10.488-38.363-20.301-55.66-3.6836-5.9531-10.215-9.5508-17.215-9.4766-7 0.070312-13.453 3.8008-17.016 9.8281-3.5586 6.0312-3.707 13.484-0.39062 19.648 19.566 33.895 24.027 74.441 12.297 111.78-11.734 37.34-38.582 68.047-74.016 84.664 0-2.1406 0.44141-4.3203 0.44141-6.4609 0.015626-7.4883-0.42578-14.969-1.3203-22.402-0.85938-7.0977-5.4375-13.199-12.016-16.008-6.5742-2.8047-14.148-1.8906-19.867 2.4023-5.7227 4.293-8.7148 11.309-7.8594 18.406 0.68359 5.8477 1.0039 11.734 0.96094 17.621-0.058594 12.844-1.8281 25.625-5.2617 38l-0.85938 2.8594c-1.1992 3.8398-2.4414 7.6992-4 11.578v0.003906c-16.316 40.551-50.637 71.156-92.789 82.734-42.148 11.582-87.289 2.8125-122.04-23.711-34.746-26.523-55.109-67.754-55.055-111.46v-60c0-7.1445-3.8125-13.746-10-17.32-6.1875-3.5742-13.812-3.5742-20 0-6.1875 3.5742-10 10.176-10 17.32v60c0.10938 46.309-22.688 89.672-60.891 115.84-38.207 26.164-86.879 31.746-130.02 14.906-43.137-16.836-75.156-53.918-85.535-99.047v-0.19922c-2.3672-10.332-3.5625-20.898-3.5586-31.5 0.003906-5.875 0.36719-11.746 1.0781-17.578 0.64062-5.2617-0.83594-10.562-4.1016-14.738-3.2656-4.1719-8.0547-6.8789-13.316-7.5234-5.2773-0.72266-10.625 0.72266-14.82 4.0039-4.1953 3.2812-6.8867 8.1211-7.4609 13.414-0.91406 7.4414-1.375 14.926-1.3789 22.422 0 2.1406 0.28125 4.2812 0.35938 6.4219-24.059-11.211-44.41-29.07-58.652-51.469-14.238-22.402-21.77-48.41-21.707-74.953-0.035156-1.2812-0.003906-2.5625 0.10156-3.8398 0-0.33984-0.10156-0.66016 0-1v-0.23828c0.82422-22.836 7.2148-45.121 18.617-64.922 3.3203-6.1641 3.1719-13.617-0.39062-19.648-3.5586-6.0273-10.012-9.7578-17.012-9.8281-7.0039-0.074219-13.531 3.5234-17.215 9.4766-9.8672 17.27-16.797 36.059-20.5 55.602-19.137-10.238-35.145-25.457-46.34-44.043-11.195-18.59-17.16-39.859-17.262-61.559-0.15234-36.645 16.66-71.301 45.539-93.859z"/>
 <path d="m260 660c12.363-0.050781 24.414-3.9219 34.492-11.082 10.082-7.1602 17.707-17.262 21.828-28.918h43.68v80h-100c-7.1445 0-13.746 3.8125-17.32 10-3.5742 6.1875-3.5742 13.812 0 20 3.5742 6.1875 10.176 10 17.32 10h100v20c0 21.219 8.4297 41.566 23.43 56.57 15.004 15 35.352 23.43 56.57 23.43h80v40c0 10.609-4.2148 20.781-11.715 28.285-7.5039 7.5-17.676 11.715-28.285 11.715h-3.6797c-6.3438-17.938-20.816-31.805-39.008-37.371-18.191-5.5703-37.945-2.1797-53.242 9.1328-15.297 11.316-24.32 29.215-24.32 48.238s9.0234 36.922 24.32 48.238c15.297 11.312 35.051 14.703 53.242 9.1328 18.191-5.5664 32.664-19.434 39.008-37.371h3.6797c21.219 0 41.566-8.4297 56.57-23.43 15-15.004 23.43-35.352 23.43-56.57v-40h80v40c0 21.219 8.4297 41.566 23.43 56.57 15.004 15 35.352 23.43 56.57 23.43h3.6797c6.3438 17.938 20.816 31.805 39.008 37.371 18.191 5.5703 37.945 2.1797 53.242-9.1328 15.297-11.316 24.32-29.215 24.32-48.238s-9.0234-36.922-24.32-48.238c-15.297-11.312-35.051-14.703-53.242-9.1328-18.191 5.5664-32.664 19.434-39.008 37.371h-3.6797c-10.609 0-20.781-4.2148-28.285-11.715-7.5-7.5039-11.715-17.676-11.715-28.285v-40h80c21.219 0 41.566-8.4297 56.57-23.43 15-15.004 23.43-35.352 23.43-56.57v-20h100c7.1445 0 13.746-3.8125 17.32-10 3.5742-6.1875 3.5742-13.812 0-20-3.5742-6.1875-10.176-10-17.32-10h-100v-80h43.68c6.3438 17.938 20.816 31.805 39.008 37.371 18.191 5.5703 37.945 2.1797 53.242-9.1328 15.297-11.316 24.32-29.215 24.32-48.238s-9.0234-36.922-24.32-48.238c-15.297-11.312-35.051-14.703-53.242-9.1328-18.191 5.5664-32.664 19.434-39.008 37.371h-43.68v-80h100c7.1445 0 13.746-3.8125 17.32-10 3.5742-6.1875 3.5742-13.812 0-20-3.5742-6.1875-10.176-10-17.32-10h-100v-20c0-21.219-8.4297-41.566-23.43-56.57-15.004-15-35.352-23.43-56.57-23.43h-80v-40c0-10.609 4.2148-20.781 11.715-28.285 7.5039-7.5 17.676-11.715 28.285-11.715h3.6797c6.3438 17.938 20.816 31.805 39.008 37.371 18.191 5.5703 37.945 2.1797 53.242-9.1328 15.297-11.316 24.32-29.215 24.32-48.238s-9.0234-36.922-24.32-48.238c-15.297-11.312-35.051-14.703-53.242-9.1328-18.191 5.5664-32.664 19.434-39.008 37.371h-3.6797c-21.219 0-41.566 8.4297-56.57 23.43-15 15.004-23.43 35.352-23.43 56.57v40h-80v-40c0-21.219-8.4297-41.566-23.43-56.57-15.004-15-35.352-23.43-56.57-23.43h-3.6797c-6.3438-17.938-20.816-31.805-39.008-37.371-18.191-5.5703-37.945-2.1797-53.242 9.1328-15.297 11.316-24.32 29.215-24.32 48.238s9.0234 36.922 24.32 48.238c15.297 11.312 35.051 14.703 53.242 9.1328 18.191-5.5664 32.664-19.434 39.008-37.371h3.6797c10.609 0 20.781 4.2148 28.285 11.715 7.5 7.5039 11.715 17.676 11.715 28.285v40h-80c-21.219 0-41.566 8.4297-56.57 23.43-15 15.004-23.43 35.352-23.43 56.57v20h-100c-7.1445 0-13.746 3.8125-17.32 10-3.5742 6.1875-3.5742 13.812 0 20 3.5742 6.1875 10.176 10 17.32 10h100v80h-43.68c-4.9375-13.859-14.801-25.418-27.715-32.469-12.91-7.0508-27.965-9.1055-42.293-5.7695-14.328 3.3359-26.93 11.828-35.398 23.855-8.4688 12.031-12.215 26.758-10.523 41.371s8.7031 28.094 19.695 37.871c10.996 9.7773 25.203 15.168 39.914 15.141zm160 300c-5.3047 0-10.391-2.1055-14.141-5.8594-3.7539-3.75-5.8594-8.8359-5.8594-14.141s2.1055-10.391 5.8594-14.141c3.75-3.7539 8.8359-5.8594 14.141-5.8594s10.391 2.1055 14.141 5.8594c3.7539 3.75 5.8594 8.8359 5.8594 14.141s-2.1055 10.391-5.8594 14.141c-3.75 3.7539-8.8359 5.8594-14.141 5.8594zm360-40c5.3047 0 10.391 2.1055 14.141 5.8594 3.7539 3.75 5.8594 8.8359 5.8594 14.141s-2.1055 10.391-5.8594 14.141c-3.75 3.7539-8.8359 5.8594-14.141 5.8594s-10.391-2.1055-14.141-5.8594c-3.7539-3.75-5.8594-8.8359-5.8594-14.141s2.1055-10.391 5.8594-14.141c3.75-3.7539 8.8359-5.8594 14.141-5.8594zm160-340c5.3047 0 10.391 2.1055 14.141 5.8594 3.7539 3.75 5.8594 8.8359 5.8594 14.141s-2.1055 10.391-5.8594 14.141c-3.75 3.7539-8.8359 5.8594-14.141 5.8594s-10.391-2.1055-14.141-5.8594c-3.7539-3.75-5.8594-8.8359-5.8594-14.141s2.1055-10.391 5.8594-14.141c3.75-3.7539 8.8359-5.8594 14.141-5.8594zm-160-340c5.3047 0 10.391 2.1055 14.141 5.8594 3.7539 3.75 5.8594 8.8359 5.8594 14.141s-2.1055 10.391-5.8594 14.141c-3.75 3.7539-8.8359 5.8594-14.141 5.8594s-10.391-2.1055-14.141-5.8594c-3.7539-3.75-5.8594-8.8359-5.8594-14.141s2.1055-10.391 5.8594-14.141c3.75-3.7539 8.8359-5.8594 14.141-5.8594zm-360 40c-5.3047 0-10.391-2.1055-14.141-5.8594-3.7539-3.75-5.8594-8.8359-5.8594-14.141s2.1055-10.391 5.8594-14.141c3.75-3.7539 8.8359-5.8594 14.141-5.8594s10.391 2.1055 14.141 5.8594c3.7539 3.75 5.8594 8.8359 5.8594 14.141s-2.1055 10.391-5.8594 14.141c-3.75 3.7539-8.8359 5.8594-14.141 5.8594zm-20 160c0-10.609 4.2148-20.781 11.715-28.285 7.5039-7.5 17.676-11.715 28.285-11.715h320c10.609 0 20.781 4.2148 28.285 11.715 7.5 7.5039 11.715 17.676 11.715 28.285v320c0 10.609-4.2148 20.781-11.715 28.285-7.5039 7.5-17.676 11.715-28.285 11.715h-320c-10.609 0-20.781-4.2148-28.285-11.715-7.5-7.5039-11.715-17.676-11.715-28.285zm-140 140c5.3047 0 10.391 2.1055 14.141 5.8594 3.7539 3.75 5.8594 8.8359 5.8594 14.141s-2.1055 10.391-5.8594 14.141c-3.75 3.7539-8.8359 5.8594-14.141 5.8594s-10.391-2.1055-14.141-5.8594c-3.7539-3.75-5.8594-8.8359-5.8594-14.141s2.1055-10.391 5.8594-14.141c3.75-3.7539 8.8359-5.8594 14.141-5.8594z"/>
 <path d="m520 740h160c15.914 0 31.176-6.3203 42.426-17.574 11.254-11.25 17.574-26.512 17.574-42.426v-160c0-15.914-6.3203-31.176-17.574-42.426-11.25-11.254-26.512-17.574-42.426-17.574h-160c-15.914 0-31.176 6.3203-42.426 17.574-11.254 11.25-17.574 26.512-17.574 42.426v160c0 15.914 6.3203 31.176 17.574 42.426 11.25 11.254 26.512 17.574 42.426 17.574zm-20-220c0-5.3047 2.1055-10.391 5.8594-14.141 3.75-3.7539 8.8359-5.8594 14.141-5.8594h160c5.3047 0 10.391 2.1055 14.141 5.8594 3.7539 3.75 5.8594 8.8359 5.8594 14.141v160c0 5.3047-2.1055 10.391-5.8594 14.141-3.75 3.7539-8.8359 5.8594-14.141 5.8594h-160c-5.3047 0-10.391-2.1055-14.141-5.8594-3.7539-3.75-5.8594-8.8359-5.8594-14.141z"/>
</svg>
