<?xml version="1.0" encoding="UTF-8"?>
<svg id="Layer_1" xmlns="http://www.w3.org/2000/svg" version="1.1" viewBox="0 0 1200 1200">
  <!-- Generator: Adobe Illustrator 30.1.0, SVG Export Plug-In . SVG Version: 2.1.1 Build 136)  -->
  <defs>
    <style>
      .st0 {
        fill-rule: evenodd;
      }

      .st1 {
        fill: #fff;
      }

      .st2 {
        stroke: #000;
        stroke-miterlimit: 10;
        stroke-width: 3px;
      }
    </style>
  </defs>
  <path class="st0" d="M782.92,1056.46c-106.36,54.05-231.19,58.27-340.97,11.62l38.44-13.22h-.05c5.91-2.06,9-8.44,6.98-14.3-2.02-5.86-8.39-9-14.25-7.03l-64.69,22.27h-.05c-5.86,2.06-9,8.44-6.98,14.34l22.27,64.69c.98,2.81,3,5.16,5.72,6.47,2.67,1.31,5.77,1.5,8.58.56,2.81-.98,5.16-3.05,6.47-5.72,1.31-2.72,1.5-5.81.52-8.62l-13.59-39.56v.05c116.34,50.11,248.9,45.94,361.82-11.48,5.53-2.81,7.73-9.61,4.92-15.14s-9.61-7.73-15.14-4.92h0ZM382.61,335.06l-67.27-12.66c-6.09-1.17-11.95,2.86-13.08,8.95-1.17,6.09,2.86,12,8.95,13.12l40.31,7.59c-40.83,29.44-76.17,65.86-104.34,107.58-33.09,48.98-55.55,104.34-65.95,162.52-1.03,6.09,3.05,11.91,9.19,12.98,6.09,1.08,11.91-3,13.03-9.14,9.8-55.03,31.08-107.44,62.39-153.79,26.67-39.47,60.09-73.92,98.72-101.81l-7.69,40.88c-1.17,6.09,2.86,11.95,8.95,13.12,6.09,1.12,11.95-2.91,13.12-9l12.66-67.27c1.12-6.09-2.91-11.95-9-13.08v-.02ZM933.48,471.14c26.91,39.56,46.55,83.62,57.89,130.08l-36.61-21.98v.05c-5.34-3.19-12.19-1.45-15.38,3.89-3.19,5.3-1.45,12.19,3.84,15.38l58.69,35.2c5.34,3.19,12.23,1.45,15.42-3.89l35.2-58.69h-.05c3.19-5.34,1.45-12.23-3.84-15.42-5.34-3.19-12.23-1.45-15.42,3.89l-20.53,34.27c-12.09-48.33-32.62-94.17-60.66-135.37-33.33-48.98-76.41-90.52-126.61-121.97-2.53-1.55-5.58-2.06-8.48-1.41s-5.44,2.44-6.98,4.97c-1.59,2.53-2.11,5.58-1.45,8.48.7,2.91,2.48,5.44,5.02,6.98,47.58,29.81,88.41,69.14,119.95,115.55h0Z"/>
  <g>
    <path d="M468.68,331.79v5.12c.7,1.33,3.67,5.82,10.34,6.14-.1-2.19-.07-4.42.17-6.67-4.55-.12-8.38-1.9-10.51-4.59h0Z"/>
    <path d="M499.44,180.23l66,37.82.97-38.46-63.01-18.9c-.97,1.55-2.87,3.7-6.37,5.59l45.88,25.04-43.44-19.2-.02,8.11Z"/>
    <path d="M500.05,157.72v-18.99l-2.47-1.67c-2.4,2.4-7.91,7.06-15.7,9.19-1.6,7.21-4.64,13.71-8.54,19.52,21.72,1.02,26.13-6.71,26.71-8.06h0Z"/>
    <path d="M525.74,127.6l37.17-32.97c.6-2.14.43-3.82-.5-5.11-1.99-2.74-7.11-3.5-9.44-3.6-20.77,9.81-50.67,28.41-60.46,34.6.13.4,2.74,7.79,2.74,7.79,7.21,2.64,23.69.52,30.5-.72h0Z"/>
    <path d="M495.07,167.19c-4.04,1.74-9.78,3.04-17.98,3.04-1.4,0-2.92-.07-4.47-.13v12.95c10.06,4.1,19.29,1.25,22.47,0v-15.85h-.02Z"/>
    <path d="M487.9,326.95c0-2.75-3.8-5.07-8.33-5.07s-8.33,2.34-8.33,5.07,3.8,5.07,8.33,5.07c4.52.02,8.33-2.3,8.33-5.07Z"/>
    <path d="M700.58,180.23v-8.11l-43.44,19.2,45.88-25.04c-3.5-1.87-5.41-4.04-6.37-5.59l-62.59,18.77.97,38.34,65.57-37.57Z"/>
    <path d="M720.45,321.88c-4.52,0-8.33,2.34-8.33,5.07s3.8,5.07,8.33,5.07,8.33-2.32,8.33-5.07-3.82-5.07-8.33-5.07Z"/>
    <path d="M674.29,127.6c6.82,1.23,23.31,3.34,30.5.72,0,0,2.6-7.39,2.74-7.79-9.81-6.21-39.69-24.79-60.46-34.6-2.34.1-7.47.87-9.44,3.6-.93,1.3-1.1,2.97-.5,5.11l37.17,32.97Z"/>
    <path d="M717.16,131.3c4.4,2.29,9.73,1.57,11.28-1.43,1.6-3.1-.83-7.71-5.34-10.04-1.77-.92-3.69-1.42-5.51-1.42-2.67,0-4.84,1.07-5.77,2.85-1.6,3.1.83,7.71,5.34,10.04Z"/>
    <path d="M731.34,336.91v-5.12c-2.14,2.69-5.97,4.47-10.51,4.57.23,2.27.27,4.49.17,6.69,6.67-.28,9.64-4.82,10.34-6.14h0Z"/>
    <path d="M717.33,141.45c-.23-1.84-.37-3.7-.4-5.61-.58-.22-1.2-.37-1.75-.67-2.7-1.4-4.79-3.4-6.21-5.62l-1.97,5.41s5.22,4.67,10.33,6.49h0Z"/>
    <path d="M702.45,137.06l-2.47,1.67v18.99c.53,1.25,4.87,9.08,26.71,8.04-3.9-5.81-6.94-12.31-8.54-19.52-7.79-2.14-13.3-6.77-15.7-9.18h0Z"/>
    <path d="M704.95,167.19v15.85c3.19,1.27,12.4,4.1,22.47,0v-12.95c-1.55.07-3.07.13-4.47.13-8.24,0-13.96-1.3-18-3.04h0Z"/>
    <path d="M600.21,307.1h17.8l2.9-63.9v-95.45l-7.82-7.01h-25.74l-7.82,7.01v95.53l2.9,63.81h17.78Z"/>
    <path d="M705.85,334.61l-44.5-31.1,48.1,28.3s.05-.03.07-.07c-1.1-1.4-1.77-3.02-1.77-4.79,0-1.47.47-2.82,1.23-4.05l-63.6-57.53-1.42,48.35,52.75,28.46c3.22-2.82,6.47-5.49,9.13-7.57h0Z"/>
    <path d="M629.08,155.06l-3.8-3.4v91.63l-2.8,61.89c3.74-1.97,7.36-2.59,10.83-1.8,2.72.62,4.87,2.02,6.52,3.5l1.74-58.76-10.71-23.36-1.77-69.7Z"/>
    <path d="M716.4,335.87c-1.23-.3-2.39-.72-3.4-1.27-3.9,2.94-16.95,13-22.69,20.19-6.34,7.96-27.73,42.88-31.01,48.27.43,1.79,2.3,6.37,10.18,6.37h.45l37.56-37.99c-.05-.02,11.14-17.52,8.93-35.57h0Z"/>
    <path d="M735.7,337.41c0,.3-.07.58-.17.85-1.38,3.27-6.21,9.04-14.9,9.18-1.6,11.98-6.91,21.92-8.98,25.39,19.45,2.4,24.37-11.48,24.99-13.58v-23.96l-.95-.25v2.37Z"/>
    <path d="M484.86,135.17c-.57.28-1.17.43-1.75.67-.03,1.92-.18,3.77-.4,5.61,5.09-1.82,10.33-6.49,10.33-6.49l-1.97-5.41c-1.42,2.24-3.5,4.22-6.21,5.62h0Z"/>
    <path d="M632.3,307.63c-3.24-.73-6.92.4-10.88,3.39l-.03-.03c-.37.27-.8.47-1.28.47h-39.74c-.5,0-.93-.18-1.3-.47l-.02.03c-3.95-2.99-7.62-4.14-10.88-3.39-4.09.92-6.61,4.52-7.34,5.74l.12,4,12.26,4.44h54.07l12.25-4.45.12-4c-.75-1.22-3.27-4.82-7.34-5.72h0Z"/>
    <path d="M777.58,264.8l-41.91,38.25-8.11,16.05c2.39,1.18,4.12,2.99,4.97,5.11l30.2-9.21,25.96-43.04c-1.6-6.82-8.74-7.24-11.11-7.16h0Z"/>
    <path d="M791.14,193.92c-5.02-9.81-43.34-42.24-62.91-58.01l.13-.17c-1.64.85-3.57,1.33-5.67,1.33-.45,0-.9-.13-1.37-.18,1.75,41.46,57.32,62.41,57.91,62.63,3.94.73,10.98.98,12.6-1.15.78-1.05.05-2.99-.68-4.45h0Z"/>
    <path d="M577.99,305.18l-2.8-61.78v-91.73l-3.8,3.4-1.97,70.57-10.51,22.49,1.72,58.76c1.65-1.48,3.8-2.89,6.52-3.5,3.47-.8,7.11-.2,10.84,1.79h0Z"/>
    <path d="M477.35,132.72c1.82,0,3.74-.48,5.51-1.42,4.5-2.34,6.94-6.94,5.32-10.04-.92-1.79-3.09-2.85-5.76-2.85-1.84,0-3.74.5-5.51,1.42-4.5,2.34-6.94,6.94-5.32,10.04.9,1.77,3.05,2.85,5.76,2.85Z"/>
    <path d="M472.45,319.11l-8.11-16.05-41.91-38.24c-2.29.03-9.51.37-11.11,7.14l25.96,43.04,30.2,9.21c.87-2.12,2.6-3.92,4.97-5.11h0Z"/>
    <path d="M421.13,199.42c.23-.12,55.82-21.1,57.57-62.53-.45.03-.9.18-1.37.18-2.12,0-4.05-.47-5.67-1.33l.13.17c-19.57,15.77-57.89,48.2-62.91,58.01-.75,1.47-1.47,3.4-.68,4.45,1.62,2.15,8.68,1.89,12.93,1.05h0Z"/>
    <path d="M491.02,322.9c.77,1.23,1.23,2.6,1.23,4.05,0,1.77-.67,3.4-1.77,4.79.02.02.05.03.07.07l48.1-28.3-44.5,31.1c2.67,2.1,5.92,4.75,9.13,7.57l53.15-28.7-1.42-48.5-63.99,57.91Z"/>
    <path d="M464.51,338.26c-.12-.27-.17-.55-.17-.85v-2.37l-.95.25v23.96c.63,2.12,5.66,15.98,25.04,13.58-2.27-3.8-7.44-13.61-9.01-25.38-8.71-.15-13.55-5.92-14.91-9.19h0Z"/>
    <path d="M487.03,334.61c-1.03.53-2.17.97-3.42,1.27-2.22,18.17,9.09,35.72,9.21,35.9l37.27,37.66h.45c7.87,0,9.74-4.57,10.18-6.37-3.3-5.39-24.67-40.31-31.01-48.27-5.72-7.19-18.77-17.23-22.67-20.19h0Z"/>
  </g>
  <path class="st0" d="M491.21,709.93c-.98-8.33-.98-16.77,0-25.09.41-4.1,3.5-7.43,7.54-8.17,8.33-.41,15.68-5.59,18.88-13.29,3.17-7.7,1.63-16.58-4.02-22.73-2.33-3.39-2.17-7.89.41-11.1,5.26-6.67,11.29-12.7,17.93-17.99,3.23-2.6,7.76-2.77,11.15-.43,6.16,5.67,15.06,7.22,22.79,4.02,7.73-3.2,12.89-10.61,13.27-18.96.73-4.07,4.04-7.13,8.14-7.57,8.44-.98,16.96-.98,25.39,0,4.1.43,7.41,3.5,8.14,7.57.38,8.36,5.53,15.76,13.27,18.96,7.73,3.2,16.63,1.65,22.79-4.02,3.39-2.33,7.92-2.17,11.15.43,6.65,5.29,12.67,11.31,17.93,17.99,2.58,3.2,2.74,7.7.41,11.1-5.62,6.16-7.19,15.03-4.02,22.73,3.2,7.7,10.55,12.89,18.88,13.29,4.04.73,7.13,4.07,7.54,8.17.98,8.33.98,16.77,0,25.09-.41,4.1-3.5,7.41-7.54,8.17-8.33.41-15.68,5.56-18.88,13.29-3.17,7.7-1.6,16.58,4.02,22.73,2.33,3.36,2.17,7.89-.41,11.1-5.26,6.67-11.29,12.7-17.93,17.99-3.23,2.58-7.76,2.77-11.15.41-6.16-5.64-15.06-7.22-22.79-3.99-7.73,3.2-12.89,10.61-13.27,18.96-.73,4.04-4.04,7.13-8.14,7.57-8.44.98-16.96.98-25.39,0-4.1-.43-7.41-3.53-8.14-7.57-.38-8.36-5.53-15.76-13.27-18.96-7.73-3.23-16.63-1.65-22.79,3.99-3.39,2.36-7.92,2.17-11.15-.41-6.65-5.29-12.67-11.31-17.93-17.99-2.58-3.2-2.74-7.73-.41-11.12,5.64-6.16,7.19-15,4.02-22.71-3.2-7.73-10.55-12.89-18.88-13.29-4.04-.76-7.13-4.07-7.54-8.17ZM547.56,697.37c0,21.21,12.78,40.34,32.36,48.45,19.61,8.11,42.16,3.64,57.16-11.37,15-15,19.48-37.55,11.37-57.13-8.11-19.61-27.24-32.36-48.45-32.36-28.95,0-52.44,23.47-52.44,52.41h0Z"/>
  <g>
    <path d="M530.38,893.84c-1.21-1.85-3.09-3.14-5.24-3.61s-4.4-.08-6.27,1.09h-.32l4.07,12.61c.68,2.08.86,4.3.52,6.47.58-.65,1.23-1.16,1.81-1.81l4.85-5.69h0c1.12-1.21,1.8-2.77,1.9-4.42.11-1.65-.36-3.28-1.32-4.63h0Z"/>
    <path d="M497.89,914.26c-.32-.65-.78-1.94-.78-1.94l-.32-1.1c-2.86,1.9-5.86,3.56-8.99,4.98-.35,1.78-1.1,3.46-2.2,4.91l-.39.45-5.37,5.43c-3.8,3.9-8.16,7.21-12.93,9.83-6,3.11-12.2,5.83-18.55,8.15-13.3,13.37-27.35,25.98-42.09,37.75-4.57,2.99-7.83,7.62-9.12,12.93-.36,4.29,1.2,8.52,4.27,11.54,3.07,3.02,7.32,4.52,11.61,4.09,4.28-.43,8.16-2.75,10.56-6.32,4.4-5.24,3.88-17,4.2-22.17.63-5.55,3.17-10.72,7.18-14.61,12.34-13.6,27.15-24.75,43.64-32.84,10.25-4.04,20.27-8.66,30-13.83-4.58-.43-8.62-3.16-10.73-7.24h0Z"/>
    <path d="M256.86,906.83h-.32l2.72,12.93c.41,2.15.29,4.37-.32,6.47.65-.52,1.36-.97,2-1.55l5.56-4.98h0c1.16-1.07,1.93-2.49,2.2-4.05.27-1.55.02-3.15-.71-4.55-1.07-1.89-2.77-3.35-4.8-4.13-2.03-.78-4.26-.83-6.33-.14h0Z"/>
    <path d="M232.94,927.19c0-.65-.52-2-.52-2v-1.42c-3.76,1.86-7.7,3.34-11.76,4.4-8.66,2.17-16.93,5.68-24.5,10.41-.84.65-51.39,38.4-63.35,43.83-5,2.29-8.94,6.41-10.99,11.51-.97,4.2-.02,8.62,2.6,12.05s6.63,5.51,10.94,5.68c4.31.17,8.47-1.59,11.35-4.8,5.04-4.59,6.46-16.29,7.18-21.4h0c1.38-5.42,4.61-10.2,9.12-13.51,14.08-11.79,30.27-20.8,47.71-26.57,10.69-2.59,21.22-5.79,31.55-9.57-4.33-1.16-7.81-4.38-9.31-8.6h0Z"/>
    <path class="st2" d="M516.17,894.03c-5.59-32.43-42.73-60.64-68.79-76.28-8.6-6.61-18.07-15.5-25.79-22.3,2.94-5.94,3.85-12.76,3.49-19.33-14.76-36.41-237.6-10.93-270.49-18.18-.47-8.82,2.55-43.39-3.68-50.54-39.17-32.51-40.23,25.05-37.88,50.49-13.34-.03-56.7,4.61-49.4,24.5,6.58,6.31,21.59,55.38,33.68,53.66,0,0,24.05.39,24.05.39,6.7,12.47,61.5,72.66,53.92,88.7-30.65,11.82-44.03,26.94-75.18,53.86-10.03,10.76-36.38,18.81-25.7,36.96,3.9,5.94,12.67,7.56,18.78,4.41h0c14.73-9.3,4.59-31.17,17.78-41.12,21.56-21.05,51.56-38.16,80.81-42.28,7.79-.42,9.55-8.42,12.54-13.57,2.2-2.78,7.82-6.86,6.86-11.05-.98-9.19-11.15-2.46-9.76-9.19.73-17.89-9.69-34.73-19.2-49.01,7.93,10.89,56.63,52.39,53.01,68.01.38,3.19,1.82,7.57,5.04,8.99h0c28.1,8.78,9.2-33.36,8.34-46.16-3.44-7.97-31.84-45.3-39.83-49.13,62.45-3.57,109.22-6.97,165.18-6.79,2.29,4.14,72.18,71,72.21,76.34,2.41,9.38,4.29,16.3-6.78,19.98-38.66,8.94-77.24,59.92-96.46,71.24-12.15,12.83,5.47,32.36,19.53,21.98,12.78-9.94,3.88-30.57,17.39-39.69,27.38-31.88,75.14-30.11,102.92-59.48h0c3.3-4.49,2.8-11.09-.9-15.19-2.19-2.67-5.4-4.73-8.92-4.85-1.8-6.38-3.63-21.7-6.85-27.48,13.77,11.63,31.79,21.07,34.78,40.99,2.2,4.62,7.32,5.26,11.9,4.85,11.74-2.87,6.93-16.2,3.43-23.73ZM97.31,1004.77c.03,4.67-17.51-4.59-12.93-7.11,15.19-12.2,13.01-10.64,12.93,7.11ZM244.65,920.08c4.5-1.59,5.68,6.04.91,5.89-3.22-.06-3.98-4.86-.91-5.89ZM364.19,1005.68c-1.69,1.41-16.67-5.88-12.41-8.92,17.51-13.51,14.55-8.94,12.41,8.92ZM133.78,710.23c11.44-.42,11.5,17.99,0,17.33-11.62.33-10.99-18.36,0-17.33ZM191.31,881.03c4.3,11.48,3.13,29.86,5.04,41.96h0c1.37,9.15-13.09,11.22-14.22,1.94-.39-7.05,1.27-16.25-3.17-22.3-2.86-3.87-52.75-70.46-54.37-72.79-10.26-17.41-42.65-39.41-3.69-48.36,12.39,16.22,25.52,44.13,43.77,56.83,1.59,2.74,24.28,38.91,26.64,42.73ZM326.62,822.46c-34.28,1.3-102.81,5.25-143.78,7.76-21.88,3.87-37.61-12.71-35.17-34.39,23.53-1.49,76.4,3.08,99.56-2.78,7.25-3.58,16.47-9.12,24.89-8.08-.41,2.96,1.65,5.88,4.78,5.75,3.82-1.82,50.22,4.63,48.88-4.46-2.06-2.93,18.14-.29,18.49-.97-.16-2.42.86-4.16-2.65-3.56-15.29-7.08-46.13-8.5-63.42-7.18h0c-40.41,19.47-65.64,14.16-108.68,14.74-32.66-.35-15.87,4.55-24.23-18.58-9.12-1.96-54.5-8.28-53.42,8.95.26,14.84,2.83,53.41,24.5,49.59-2.14-1.06-22.78,2.45-23.14-2.52.19-1.8-27.16-49.37-24.14-50.65,39.78-21.95,302.15-14.05,346.15-4.19,6.57,2.98,1.95,13.25,1.43,18.63-8.39,21.06-5.94,23.21-21.98,3.55-10.46-9.7,8.16-24.6-14.35-25.79-8.85,1.66-38.17-6.05-36.07,10.8.97,19.1-7.63,48.19,23.53,42.15-14.84.78-32.71,1.1-41.18,1.23ZM466.33,900.04c1.86,7.38,8.11,27.79-7.12,23.19-6.35-3.38-4.76-13.03-6.84-18.99h0c-17.29-27.03-76.49-80.51-96.91-104.6h0c1.89-8.54,11.16-15.87,19.52-18.23,9.04,8.94,22.16,26.88,32.84,36.98,5.82,7.19,13.82,11.51,21.53,15.71,0,0,15.71,21.27,15.71,21.27,13.36,15.25,18.05,24.57,21.27,44.67ZM511.59,910.32h0c-4.23,2.25-6.52-5.17-1.75-5.69,3.3-.42,4.53,4.41,1.49,5.69h.26Z"/>
    <path d="M192.6,921.51c.41,1.77-.7,3.54-2.48,3.95s-3.54-.7-3.95-2.48.7-3.54,2.48-3.95,3.54.7,3.95,2.48Z"/>
    <path d="M465.78,915.62c0,1.82-1.48,3.3-3.3,3.3s-3.3-1.48-3.3-3.3,1.48-3.3,3.3-3.3,3.3,1.48,3.3,3.3Z"/>
    <path d="M69.18,693.81l138.61-1.23,5.17,7.56h-49.07c-.72.11-1.4.37-2,.78l-5.88,3.1c.39.65.84,1.29,1.16,1.94,1.76,3.35,2.69,7.08,2.72,10.86v7.11l3.69,1.49c.68.26,1.41.37,2.13.32h59.87,0c2.28-.16,4.08-1.99,4.2-4.27,2.74,1.65,5.92,2.42,9.12,2.2,3.33-.65,6.16-2.82,7.66-5.87,1.5-3.04,1.49-6.61-.03-9.65-1.94-4.4-21.85-36.79-21.85-36.79H69.5v-3.23h0c-2.92-6.45-8.9-11-15.9-12.09-8.71-1.34-17.6.59-24.95,5.43l-12.41,8.15c-6.79,4.46-12.48,11.51-10.34,18.36l36.07-12.93,3.04,11.12c-12.54,5.11-35.75,10.54-35.75,10.54,2.59,4.15,7.07,6.74,11.96,6.92l25.86.9c7.18.32,18.49.07,22.11-10.73h0Z"/>
  </g>
  <g>
    <path class="st1" d="M1044.08,748.21l-.04-47.08h-57.49s-.03,47.13-.03,47.13l57.55-.05ZM943.74,875.94l31.12-30.76,111.31-.07,5.77,3.99,6.71-4.38,7.15,1.63-1.85-6.63-19.09-14.08h-247.67c.33-4.32.08-7.41-.74-10.4l.95-1.94c.22-.45-1.08-1.71-1.09-2.32-.1-7.12-5.26-11.67-6.83-14.48l-18.83-33.67-12.86-22.77c-5.01-8.86-10.37-16.93-15.27-25.91l-5.84-10.68c-.37-.68-2.29-1.22-2.83-.81-.43.33-.76,2.1-.32,2.86,8.27,14.24,15.64,31.53,23.62,46.48l18.78,35.2,7.87,15.23,2.59,5.32c.38.78.8,2,.87,2.63s-1.12,1.88-1.11,2.49l.05,3.21c.01.73-1.84,1.62-2.26,2.27l-.1,7.26-23.2.06-17.04,17.35,8.86,6.06c4.84,3.31,4.93-7.81,16.76-3.95l102.54.02,31.97,30.78ZM903.22,787.32v-47.16s-93.35,0-93.35,0l.04,15.28,17.56,31.89h75.75ZM1049.25,821.67l-.02-70.1h-139.19s0,70.11,0,70.11h139.2ZM1063.61,807.76l-.02-41.67-11.1.03.03,41.72,11.1-.08ZM1094.75,807.32l2.96.76.02-41.7-31.64,7.81v26.13s28.65,7.01,28.65,7.01ZM821.28,803.52l-6.92-13.43c-1.44-.17-3.56-.07-4.54.31v32.51s11.05.12,11.05.12l.25-4.3c.33-5.71,6.43-3.06.16-15.22ZM840.3,822.99h62.93s-.09-33.06-.09-33.06h-73.98c1.92,6.01,7.11,9.03,8.88,16.15l1.44,5.82c.82,3.29.32,7.39.82,11.09ZM1019.93,864.35c22.53-2.23,40.65,1.13,58.44,15.6,1.17.26,3.82-1.23,3.83-2.49l.09-12.79,5.18.07,19.7,13.81c-4.23-7.01-8.07-12.77-12.61-18.94-1.71-2.33-4.67-4.27-7.01-6.32l-108.18-.16-33.51,33.27c-1.55.71-3.41.65-4.73-.32l-32.38-32.74-108.75-.12c-2.43,2.64-5.32,4.67-7.1,7.28-3.94,5.79-7.22,11.27-10.65,17.52l19.35-12.87c1.14-.76,4.41-.54,5.45-.26-.04,5.02-.14,8.61.33,13.14.15,1.4,3.17.3,4.02-.35,16.72-12.82,34.73-15.35,55.32-13.32,30.94,3.04,58.35,30.5,61.85,61.77.77,6.93.06,14.03.38,21.1l28.83.21c.23-7.22-.45-14.33.33-21.31,3.48-31.25,30.88-58.71,61.84-61.77ZM848.78,869.08c-38.54,3.97-68.15,41.06-63.98,78.67,4.17,37.62,37.98,64.88,75.61,61.01,37.83-3.9,67.94-40.29,64.04-78.18-3.25-31.5-44.6-64.7-75.67-61.5ZM1024.38,869.08c-38.55,3.97-65.65,38.56-61.48,76.17,4.17,37.62,40.48,67.38,78.11,63.51,37.83-3.9,65.45-37.8,61.54-75.68-3.86-37.41-39.83-67.95-78.16-64Z"/>
    <path d="M1026.88,871.58c38.34-3.95,71.81,24.08,75.67,61.5,3.91,37.89-23.71,71.78-61.54,75.68-37.63,3.88-71.44-23.38-75.61-61.01-4.17-37.61,22.94-72.2,61.48-76.17ZM1030.96,923.06v-17.6c-.01-.9-1.27-2.81-2.13-3.05-.74-.21-2.22.01-3.39.28-10.6,2.43-19.47,9.62-25.05,18.72,1.7,3.67,4.93,3.91,8.12,4.9l13.41,4.13c3.32-4.46,9.04-3.6,9.04-7.38ZM1046.77,931.36l17.48-5.88c.86-.29,2.26-1.92,2.9-2.64-5.16-9.03-12.98-15.84-22.85-19.43-1.36-.49-3.45-.74-4.39-.13-.8.53-1.69,2.4-1.69,3.45l.05,18.12,3.97,3.05,4.51,3.45ZM1030.86,930.77c-5.62,1.63-7.85,7.45-6.16,12.3s6.82,7.22,11.66,5.82c5.06-1.46,7.81-6.75,6.33-11.84-1.38-4.74-6.38-7.87-11.84-6.29ZM1016.37,955.11l4.81-6.85c-2.96-6.49.18-8.43-5.87-10.4l-17.79-5.79c-1.46-.29-2.26,2.93-2.38,4.31-.94,10.53,2.13,19.81,8.92,27.63l3.1,3.57,9.2-12.46ZM1048.42,951.91c3.6,5,7.07,9.81,11.28,14.51,8.95-7.62,12.49-18.04,11.79-29.34-.08-1.33-1.07-4.78-2.56-4.37l-17.32,5.55c-5.94,1.9-2.24,2.65-5.66,10.23l2.47,3.43ZM1051.72,972.41l-5.38-7.65c-2.71-3.86-5.33-7.31-8.87-10.81l-7.35.11c-1.51.02-3.25,2.37-4.04,3.64-2.94,4.69-7.32,10.29-11.18,14.87,6.05,7.6,30.67,7.83,36.82-.15Z"/>
    <path d="M846.28,871.58c38.34-3.95,71.81,24.08,75.67,61.5,3.91,37.89-23.71,71.78-61.54,75.68-37.63,3.88-71.44-23.38-75.61-61.01-4.17-37.61,22.94-72.2,61.48-76.17ZM850.36,923.06v-17.6c-.01-.89-1.27-2.8-2.13-3.05-.74-.21-2.22.01-3.39.28-10.6,2.43-19.47,9.63-25.05,18.72,1.68,3.68,4.94,3.91,8.11,4.89l13.45,4.17c3.19-4.48,9.01-3.59,9.01-7.4ZM866.17,931.36l17.48-5.88c.86-.29,2.26-1.92,2.9-2.64-5.16-9.02-12.98-15.85-22.85-19.43-1.35-.49-3.45-.74-4.39-.13-.8.53-1.69,2.4-1.69,3.45l.05,18.12,3.97,3.05,4.51,3.45ZM850.26,930.77c-5.62,1.63-7.85,7.45-6.16,12.3,1.67,4.79,6.82,7.22,11.66,5.82,5.06-1.46,7.81-6.75,6.33-11.84-1.38-4.74-6.38-7.87-11.83-6.29ZM835.77,955.11l4.81-6.85c-2.96-6.49.18-8.42-5.87-10.39l-17.79-5.79c-1.45-.29-2.26,2.93-2.38,4.31-.94,10.53,2.13,19.81,8.92,27.63l3.1,3.57,9.2-12.46ZM867.82,951.91c3.6,5,7.07,9.81,11.28,14.51,8.95-7.62,12.49-18.04,11.79-29.34-.08-1.32-1.07-4.79-2.56-4.37l-17.32,5.55c-5.94,1.9-2.24,2.65-5.66,10.23l2.47,3.43ZM871.12,972.41l-5.38-7.65c-2.71-3.86-5.33-7.31-8.87-10.81l-7.35.11c-1.51.02-3.24,2.37-4.04,3.64-2.94,4.69-7.32,10.29-11.18,14.87,6.05,7.6,30.67,7.83,36.82-.15Z"/>
    <polygon points="1054.24 821.67 915.04 821.67 915.04 751.57 1054.23 751.56 1054.24 821.67"/>
    <path d="M943.74,875.94l-31.97-30.78-102.54-.02c-11.83-3.87-11.92,7.26-16.76,3.95l-8.86-6.06,17.04-17.35,23.2-.06.1-7.26c.41-.65,2.27-1.53,2.26-2.27l-.05-3.21c0-.61,1.19-1.85,1.11-2.49s-.49-1.85-.87-2.63l-2.59-5.32-7.87-15.23-18.78-35.2c-7.98-14.95-15.34-32.24-23.62-46.48-.44-.76-.12-2.53.32-2.86.54-.42,2.46.13,2.83.81l5.84,10.68c4.91,8.98,10.27,17.05,15.27,25.91l12.86,22.77,18.83,33.67c1.57,2.81,6.73,7.36,6.83,14.48,0,.6,1.31,1.87,1.09,2.32l-.95,1.94c.82,2.98,1.07,6.08.74,10.4h247.67s19.09,14.08,19.09,14.08l1.85,6.63-7.15-1.63-6.71,4.38-5.77-3.99-111.31.07-31.12,30.76Z"/>
    <path d="M1019.93,861.35c-30.96,3.06-58.36,30.52-61.84,61.77-.78,6.98-.1,14.09-.33,21.31l-28.83-.21c-.33-7.07.39-14.17-.38-21.1-3.5-31.26-30.9-58.73-61.85-61.77-20.6-2.02-38.61.51-55.32,13.32-.85.65-3.88,1.75-4.02.35-.47-4.53-.37-8.12-.33-13.14-1.04-.28-4.31-.49-5.45.26l-19.35,12.87c3.43-6.25,6.71-11.73,10.65-17.52,1.78-2.61,4.67-4.64,7.1-7.28l108.75.12,32.38,32.74c1.32.97,3.18,1.02,4.73.32l33.51-33.27,108.18.16c2.34,2.04,5.3,3.99,7.01,6.32,4.54,6.17,8.38,11.94,12.61,18.94l-19.7-13.81-5.18-.07-.09,12.79c0,1.26-2.66,2.76-3.83,2.49-17.79-14.47-35.91-17.82-58.44-15.6Z"/>
    <polygon points="904.47 781.07 828.72 781.09 811.15 749.2 811.11 733.92 904.46 733.91 904.47 781.07"/>
    <polygon points="1044.08 744.47 986.53 744.51 986.56 697.39 1044.05 697.38 1044.08 744.47"/>
    <path d="M841.55,820.49c-.51-3.7,0-7.8-.82-11.09l-1.44-5.82c-1.76-7.12-6.96-10.14-8.88-16.15h73.98s.09,33.06.09,33.06h-62.93Z"/>
    <polygon points="1098.5 807.32 1069.85 800.31 1069.84 774.19 1101.48 766.38 1101.46 808.08 1098.5 807.32"/>
    <polygon points="1063.61 807.76 1052.51 807.85 1052.48 766.13 1063.58 766.09 1063.61 807.76"/>
    <path d="M820.03,803.52c6.26,12.16.17,9.51-.16,15.22l-.25,4.3-11.04-.12v-32.51c.97-.38,3.08-.48,4.53-.31l6.92,13.43Z"/>
    <path class="st1" d="M1051.72,972.41c-6.14,7.98-30.77,7.75-36.82.15,3.86-4.57,8.23-10.17,11.18-14.87.8-1.27,2.53-3.61,4.04-3.64l7.35-.11c3.54,3.5,6.16,6.95,8.87,10.81l5.38,7.65Z"/>
    <path class="st1" d="M1016.37,955.11l-9.2,12.46-3.1-3.57c-6.8-7.82-9.86-17.1-8.92-27.63.12-1.38.92-4.6,2.38-4.31l17.79,5.79c6.05,1.97,2.9,3.91,5.87,10.4l-4.81,6.85ZM1017.33,940.7l-19.93-6.67c-.48,5.05-.31,10.66.76,15.91h18.75c4.91,0-.16-4.67.41-9.23Z"/>
    <path class="st1" d="M1048.42,951.91l-2.47-3.43c3.42-7.58-.28-8.32,5.66-10.23l17.32-5.55c1.49-.41,2.47,3.04,2.56,4.37.71,11.3-2.84,21.72-11.79,29.34-4.21-4.7-7.68-9.5-11.28-14.51ZM1049.31,949.94l19.11-.02c.94-5.09,1.21-9.65.78-15.29l-19.39,6.35c.89,3.25-3.92,8.96-.5,8.96Z"/>
    <path class="st1" d="M1030.86,930.77c5.45-1.58,10.46,1.55,11.84,6.29,1.48,5.08-1.27,10.38-6.33,11.84-4.84,1.4-10-1.03-11.66-5.82s.54-10.67,6.16-12.3Z"/>
    <path class="st1" d="M1030.96,923.06c0,3.78-5.72,2.92-9.04,7.38l-13.41-4.13c-3.2-.99-6.42-1.22-8.12-4.9,5.59-9.1,14.46-16.29,25.05-18.72,1.17-.27,2.65-.49,3.39-.28.86.25,2.12,2.15,2.12,3.05v17.6ZM1021.82,926.99c2.26-2.24,3.39-2.89,5.73-4.13v-17.08c-9.93,1.41-18.03,6.79-23.7,15.36,1.69.72,3.26,1.26,4.96,1.79l13,4.05Z"/>
    <path class="st1" d="M1046.77,931.36l-4.51-3.45-3.97-3.05-.05-18.12c0-1.05.88-2.93,1.69-3.45.94-.62,3.03-.37,4.39.13,9.87,3.58,17.69,10.4,22.85,19.43-.64.72-2.04,2.35-2.9,2.64l-17.48,5.88ZM1046.3,929.36l18.91-6.2c-5.16-9.4-14-16.43-24.87-18.6l.02,20.14c2.35,1.13,3.82,2.42,5.94,4.67Z"/>
    <path class="st1" d="M871.12,972.41c-6.14,7.98-30.77,7.75-36.82.15,3.86-4.57,8.23-10.18,11.18-14.87.8-1.27,2.53-3.61,4.04-3.64l7.35-.11c3.55,3.5,6.16,6.95,8.87,10.81l5.38,7.65Z"/>
    <path class="st1" d="M835.77,955.11l-9.2,12.46-3.1-3.57c-6.8-7.82-9.86-17.1-8.92-27.63.12-1.38.92-4.6,2.38-4.31l17.79,5.79c6.05,1.97,2.9,3.91,5.87,10.39l-4.81,6.85ZM836.73,940.7l-19.93-6.67c-.48,5.05-.31,10.66.76,15.91h18.75c4.91,0-.16-4.67.41-9.23Z"/>
    <path class="st1" d="M867.82,951.91l-2.47-3.43c3.42-7.57-.28-8.32,5.66-10.23l17.32-5.55c1.49-.42,2.47,3.05,2.56,4.37.71,11.3-2.84,21.72-11.79,29.34-4.21-4.7-7.68-9.51-11.28-14.51ZM868.86,949.9l18.91.06c1.06-5.14,1.27-9.72.83-15.34l-19.38,6.35c.87,3.54-4.05,8.91-.35,8.93Z"/>
    <path class="st1" d="M850.26,930.77c5.45-1.58,10.46,1.55,11.83,6.29,1.48,5.08-1.27,10.38-6.33,11.84-4.84,1.4-10-1.03-11.66-5.82-1.69-4.85.54-10.67,6.16-12.3Z"/>
    <path class="st1" d="M850.36,923.06c0,3.81-5.82,2.92-9.01,7.4l-13.45-4.17c-3.17-.98-6.43-1.21-8.11-4.89,5.58-9.09,14.46-16.29,25.05-18.72,1.17-.27,2.65-.49,3.39-.28.86.25,2.12,2.16,2.12,3.05v17.6ZM841.22,926.98c2.24-2.19,3.47-2.93,5.65-4.11l.1-17.09c-9.94,1.41-18.04,6.79-23.71,15.36,1.69.73,3.26,1.26,4.96,1.79l13,4.05Z"/>
    <path class="st1" d="M866.17,931.36l-4.51-3.45-3.97-3.05-.05-18.12c0-1.05.88-2.93,1.69-3.45.94-.62,3.03-.37,4.39.13,9.87,3.58,17.69,10.4,22.85,19.43-.64.72-2.04,2.35-2.9,2.64l-17.48,5.88ZM865.71,929.36l18.91-6.2c-5.16-9.4-14-16.43-24.87-18.6l.02,20.14c2.35,1.13,3.82,2.43,5.94,4.67Z"/>
    <path d="M1017.33,940.7c-.58,4.56,4.5,9.24-.41,9.24h-18.75c-1.07-5.25-1.25-10.86-.76-15.91l19.93,6.67Z"/>
    <path d="M1049.31,949.94c-3.43,0,1.39-5.71.5-8.96l19.39-6.35c.43,5.64.16,10.2-.78,15.29l-19.11.02Z"/>
    <path d="M1021.82,926.99l-13-4.05c-1.7-.53-3.27-1.07-4.96-1.79,5.67-8.57,13.76-13.95,23.7-15.36v17.08c-2.35,1.23-3.48,1.89-5.74,4.13Z"/>
    <path d="M1046.3,929.36c-2.12-2.25-3.59-3.54-5.94-4.67l-.02-20.14c10.87,2.18,19.71,9.2,24.87,18.6l-18.91,6.2Z"/>
    <path d="M836.73,940.7c-.58,4.56,4.5,9.24-.41,9.24h-18.75c-1.07-5.25-1.25-10.86-.76-15.91l19.93,6.67Z"/>
    <path d="M868.86,949.9c-3.7-.01,1.23-5.39.35-8.93l19.38-6.35c.44,5.63.23,10.2-.83,15.34l-18.91-.06Z"/>
    <path d="M841.22,926.98l-13-4.05c-1.71-.53-3.27-1.07-4.96-1.79,5.67-8.57,13.76-13.95,23.71-15.36l-.1,17.09c-2.18,1.18-3.41,1.92-5.65,4.11Z"/>
    <path d="M865.71,929.36c-2.12-2.24-3.59-3.54-5.94-4.67l-.02-20.14c10.87,2.18,19.71,9.2,24.87,18.6l-18.91,6.2Z"/>
  </g>
</svg>