<svg height="80.066" width="500.235" xmlns="http://www.w3.org/2000/svg"><path d="m101.167 44.622c0 6.091 1.458 7.81 5.579 7.81v1.459h-17.679v-1.459c3.433 0 5.577-1.114 5.577-7.639v-30.806c0-6.008-1.458-7.811-5.577-7.811v-1.459h17.935c13.559 0 19.05 7.209 19.05 13.989 0 8.152-6.18 12.7-17.332 12.7-2.147 0-3.95-.088-7.554-.515m.001-2.231c2.231.773 3.519.859 6.093.859 7.294 0 11.928-3.948 11.928-10.642 0-5.234-2.918-12.271-11.928-12.271h-6.093zm27.126 6.694c-.171 13.644 7.98 17.077 12.1 17.077 4.206 0 6.352-1.46 10.727-6.351v2.231c-3.689 4.719-7.207 6.521-12.527 6.521-9.527 0-16.391-6.607-16.391-15.791 0-9.182 6.692-16.389 15.273-16.389 7.036 0 13.557 5.664 13.129 12.7m-5.748-1.457c.257-6.692-4.29-9.44-8.152-9.44-5.063 0-8.066 3.776-8.41 9.44zm38.721-.343c0-7.294-5.232-10.898-10.298-10.898-3.86 0-7.38 1.973-10.982 6.092v-6.092h-1.461l-9.438.943v1.459c4.119 0 5.063.771 5.063 4.463v17.076c0 5.493-1.029 5.835-5.063 5.835v1.458h16.045v-1.458c-4.548 0-5.146-1.2-5.146-5.835v-14.845c3.003-4.033 5.664-5.922 8.667-5.922 3.26 0 6.779 2.059 6.779 6.951v15.877c0 2.83-1.117 3.774-5.234 3.774v1.458h16.219v-1.458c-4.292 0-5.151-1.2-5.151-5.149m38.654-13.729c0-7.294-5.235-10.898-10.296-10.898-3.862 0-7.382 1.973-10.986 6.092v-6.092h-1.458l-9.439.943v1.459c4.121 0 5.063.771 5.063 4.463v17.076c0 5.493-1.028 5.835-5.063 5.835v1.458h16.047v-1.458c-4.548 0-5.149-1.2-5.149-5.835v-14.845c3.005-4.033 5.664-5.922 8.667-5.922 3.262 0 6.781 2.059 6.781 6.951v15.877c0 2.83-1.117 3.774-5.236 3.774v1.458h16.221v-1.458c-4.292 0-5.151-1.2-5.151-5.149m75.365-42.564h-11.582l-15.963 38.703-15.702-38.703h-12.441v1.459c2.83.429 4.547 1.375 6.434 3.433l-3.003 33.811c-.515 5.407-1.287 8.322-6.265 9.011v1.459h15.275v-1.459c-4.978-.945-6.78-3.862-6.351-8.839l2.748-30.293h.17l16.474 40.591h1.289l16.82-40.591h.171l2.402 31.75c.345 4.892-1.029 6.693-5.063 7.382v1.459h17.681v-1.459c-4.551-.43-5.58-2.319-6.098-8.326l-2.486-30.29c-.344-4.636 1.287-7.553 5.489-7.639m8.165 29.178c-.172 13.644 7.979 17.077 12.099 17.077 4.205 0 6.353-1.46 10.726-6.351v2.231c-3.688 4.719-7.207 6.521-12.526 6.521-9.526 0-16.388-6.607-16.388-15.791 0-9.182 6.69-16.389 15.271-16.389 7.038 0 13.558 5.664 13.13 12.7m-5.751-1.457c.255-6.692-4.291-9.44-8.151-9.44-5.065 0-8.066 3.776-8.41 9.44zm39.453 14.073c0 3.349 1.201 4.462 5.064 4.462v1.458h-17.682c-12.87 0-17.673-8.665-17.673-15.79 0-8.582 6.348-15.445 14.245-15.445 3.258 0 6.348 1.116 10.21 3.689v-18.619c0-4.377-1.029-5.235-4.032-5.235h-1.719v-1.459l10.128-1.029h1.459m-5.835 29.605c-2.404-3.262-5.751-5.149-8.84-5.149-5.493 0-9.268 4.976-9.268 12.356 0 7.295 3.348 15.704 13.301 15.704 3.433 0 4.807-1.374 4.807-4.632zm25.313 18.621c0 3.004.771 4.205 5.063 4.205v1.459h-16.649v-1.459c4.634 0 5.747-.601 5.747-4.205v-18.621c0-4.205-1.284-4.549-5.747-4.549v-1.459l10.127-.945h1.459m.855-12.012c0 2.06-1.629 3.774-3.688 3.774-2.061 0-3.774-1.714-3.774-3.774s1.714-3.69 3.774-3.69c2.059 0 3.688 1.631 3.688 3.69zm31.45 12.014h-1.46c-.517 1.116-1.288 1.716-2.06 1.716-1.543 0-4.031-1.716-8.58-1.716-8.669 0-15.705 7.465-15.705 16.819 0 9.098 6.267 15.36 15.275 15.36 5.493 0 10.127-2.232 13.385-6.694v-2.23c-3.174 4.378-7.635 6.351-11.324 6.351-6.181 0-11.415-6.952-11.415-15.274 0-7.466 4.204-12.615 10.214-12.615 5.063 0 8.922 3.519 10.21 9.01h1.46m14.566 14.845c0 3.004.771 4.205 5.063 4.205v1.459h-16.649v-1.459c4.634 0 5.752-.601 5.752-4.205v-18.621c0-4.205-1.289-4.549-5.752-4.549v-1.459l10.126-.945h1.461m.855-12.012c0 2.06-1.631 3.774-3.689 3.774-2.061 0-3.774-1.714-3.774-3.774s1.714-3.69 3.774-3.69c2.059 0 3.689 1.631 3.689 3.69zm38.22 22.912c0-7.294-5.238-10.898-10.302-10.898-3.858 0-7.379 1.973-10.982 6.092v-6.092h-1.459l-9.438.943v1.459c4.12 0 5.063.771 5.063 4.463v17.076c0 5.493-1.029 5.835-5.063 5.835v1.458h16.045v-1.458c-4.549 0-5.147-1.2-5.147-5.835v-14.845c3.004-4.033 5.664-5.922 8.667-5.922 3.26 0 6.778 2.059 6.778 6.951v15.877c0 2.83-1.114 3.774-5.234 3.774v1.458h16.22v-1.458c-4.292 0-5.146-1.2-5.146-5.149m10.204-11.927c-.171 13.644 7.983 17.077 12.104 17.077 4.202 0 6.349-1.46 10.726-6.351v2.231c-3.689 4.719-7.209 6.521-12.527 6.521-9.525 0-16.394-6.607-16.394-15.791 0-9.182 6.694-16.389 15.275-16.389 7.037 0 13.558 5.664 13.131 12.7m-5.75-1.457c.256-6.692-4.294-9.44-8.152-9.44-5.063 0-8.068 3.776-8.412 9.44z" fill="#002d73"/><path d="m.235 4.902v36.739c4.23 26.912 32.625 37.896 32.625 37.896 30.122-12.925 31.882-37.896 31.882-37.896v-36.739" fill="#fff"/><g fill="none" stroke="#002d73"><path d="m15.056 67.748c8.824 8.32 18.01 11.895 18.01 11.895 7.676-3.308 13.32-7.304 17.736-11.567-4.41 4.331-10.186 8.428-17.736 11.567 0-.001-9.218-3.511-18.01-11.895z" stroke-width=".784"/><path d="m5.446 55.296c-1.856-3.315-3.412-6.996-4.494-11.065.923 4.14 2.644 7.673 4.494 11.065z" stroke-width=".784"/><path d="m64.744 26.127v16.003s-.657 5.604-4.227 12.663l.017-.053c3.65-7.339 4.209-12.681 4.209-12.681v-15.932z" stroke-width=".784"/><path d="m.393 26.127h64.352v-21.165h-64.352v37.168c.157.756.369 1.371.558 2.101-.15-.713-.289-1.435-.521-2.171z" stroke-width=".784"/></g><path d="m5.024 55.189c2.806 5.176 6.343 9.435 9.953 12.877l17.943-17.31 18.033 17.637c4.558-4.473 7.666-9.19 9.776-13.364l-27.81-26.652m-14.347 30.992c-2.764 0-5.005-2.236-5.005-5.005 0-2.764 2.241-5.004 5.005-5.004 2.763 0 5.005 2.24 5.005 5.004 0 2.768-2.242 5.005-5.005 5.005zm29.245-10.009c2.763 0 5.004 2.24 5.004 5.004 0 2.769-2.241 5.005-5.004 5.005-2.766 0-5.005-2.236-5.005-5.005 0-2.764 2.239-5.004 5.005-5.004zm-9.524-8.034c0 2.764-2.241 5.007-5.007 5.007-2.764 0-5.003-2.243-5.003-5.007s2.239-5.006 5.003-5.006c2.766 0 5.007 2.242 5.007 5.006z" fill="#002d73"/><path d="m5.024 55.189c2.806 5.176 6.343 9.435 9.953 12.877l17.943-17.31 18.033 17.637c4.558-4.473 7.666-9.19 9.776-13.364l-27.81-26.652zm13.548 4.18c-2.764 0-5.005-2.236-5.005-5.005 0-2.764 2.241-5.004 5.005-5.004 2.763 0 5.005 2.24 5.005 5.004 0 2.768-2.242 5.005-5.005 5.005zm29.245-10.009c2.763 0 5.004 2.24 5.004 5.004 0 2.769-2.241 5.005-5.004 5.005-2.766 0-5.005-2.236-5.005-5.005 0-2.764 2.239-5.004 5.005-5.004zm-9.524-8.034c0 2.764-2.241 5.007-5.007 5.007-2.764 0-5.003-2.243-5.003-5.007s2.239-5.006 5.003-5.006c2.766 0 5.007 2.242 5.007 5.006z" fill="none" stroke="#002d73" stroke-width=".392"/><path d="m9.292 9.739c.007-.001.015-.003.021-.007-.031-.011-.155-.059-.352-.124.206.074.324.131.324.131v9.665h-5.078v.015h5.117v-.021h-.014" fill="#a90533"/><path d="m9.292 9.739c.007-.001.015-.003.021-.007-.031-.011-.155-.059-.352-.124.206.074.324.131.324.131v9.665h-5.078v.015h5.117v-.021h-.014z" fill="none" stroke="#004785" stroke-width=".392"/><path d="m9.581 9.646c.042-.013.079-.025.117-.038-.043.014-.082.026-.117.038" fill="#a90533"/><path d="m9.581 9.646c.042-.013.079-.025.117-.038-.043.014-.082.026-.117.038z" fill="none" stroke="#004785" stroke-width=".392"/><path d="m.476 4.962v21.165h64.304v-21.165m-48.843 16.729h-6.631-6.63v-1.521c-1.382-1.295.002-2.584.002-2.584v-4.131c-1.323-2.016.547-3.027.547-3.027h.984v.002l-.002.003v.059c.144-.169.295-.313.451-.441-.15.11-.298.229-.439.37.2-.216.419-.384.645-.531 1.428-1 3.184-.591 3.986-.32.282.085.457.155.457.155.653-.245 1.238-.371 1.758-.425 1.975-.235 2.889.627 3.247 1.004.006.003.006.009.012.012.042.045.081.086.107.111v8.969h-5.107v.022h5.122v-8.981-.001c-.001-.003-.005-.005-.007-.009h.95s1.87 1.011.546 3.027v4.131s1.382 1.29.002 2.584zm30.562-1.833c-3.85 5.936-10.847 1.875-10.847 1.875-5.969-5.188-8.34-2.225-8.34-2.225-3.779 4.441-6.992 4.021-7.741 2.712-1.497-.298-1.461-1.516-.705-1.881 1.09-.527.652-.851.652-.851-2.882-2.329 3.346-9.612 3.346-9.612s.509-.642 1.248-.824c.762-.193 1.367-.257 1.831.692.642-.484.752-.834 1.553-.834.498 0 1.129.324 1.292.785 0 0 2.434-1.267 2.567.579l.462-.113c.742-.119 1.76-.395 1.76 1.202l.854-.043c.468.187.75.52.75 1.016.549 0 .95-.148 1.391.16.522.361.481.951.481 1.606.644.134 1.125.603 1.125 1.259v.669c0 .173.269.148.375.268.309.337.294 1.543.004 2.396 2.752 4.237 5.576.812 5.576.812 1.447-2.434-.534-2.642-.534-2.642-1.694-.209-3 2.502-3 2.502-1.729-5.051 2.402-4.869 2.402-4.869-.316-5.746 3.817-3.756 3.817-3.756-2.578 2.878-.989 4.312-.989 4.312 1.94 2.438.67 4.805.67 4.805zm15.984 1.833h-6.631-6.628v-1.521c-1.38-1.295 0-2.584 0-2.584v-4.131c-1.321-2.016.549-3.018.549-3.018h.982c2.145-2.108 5.078-.711 5.078-.711v9.676h-5.078v.018h5.116v-.022h-.013l-.019-9.671c.013-.005.024-.006.037-.014v.027s-3.097-1.31-5.121.698c1.912-2.021 5.097-.711 5.097-.711 3.295-1.21 4.521.236 5.125.711-2.313-2.165-5.102-.698-5.102-.698v-.028c3.155-1.336 4.798.43 5.102.725l.003 8.96h-5.108v.022h5.122l-.017-8.982c-.001-.002.001.001 0 0h.958s1.871 1.001.547 3.018v4.131s1.382 1.29 0 2.584v1.521z" fill="#a41f35"/><path d="m.476 4.962v21.165h64.304v-21.165zm15.461 16.729h-6.631-6.63v-1.521c-1.382-1.295.002-2.584.002-2.584v-4.131c-1.323-2.016.547-3.027.547-3.027h.984v.002l-.002.003v.059c.144-.169.295-.313.451-.441-.15.11-.298.229-.439.37.2-.216.419-.384.645-.531 1.428-1 3.184-.591 3.986-.32.282.085.457.155.457.155.653-.245 1.238-.371 1.758-.425 1.975-.235 2.889.627 3.247 1.004.006.003.006.009.012.012.042.045.081.086.107.111v8.969h-5.107v.022h5.122v-8.981-.001c-.001-.003-.005-.005-.007-.009h.95s1.87 1.011.546 3.027v4.131s1.382 1.29.002 2.584zm30.562-1.833c-3.85 5.936-10.847 1.875-10.847 1.875-5.969-5.188-8.34-2.225-8.34-2.225-3.779 4.441-6.992 4.021-7.741 2.712-1.497-.298-1.461-1.516-.705-1.881 1.09-.527.652-.851.652-.851-2.882-2.329 3.346-9.612 3.346-9.612s.509-.642 1.248-.824c.762-.193 1.367-.257 1.831.692.642-.484.752-.834 1.553-.834.498 0 1.129.324 1.292.785 0 0 2.434-1.267 2.567.579l.462-.113c.742-.119 1.76-.395 1.76 1.202l.854-.043c.468.187.75.52.75 1.016.549 0 .95-.148 1.391.16.522.361.481.951.481 1.606.644.134 1.125.603 1.125 1.259v.669c0 .173.269.148.375.268.309.337.294 1.543.004 2.396 2.752 4.237 5.576.812 5.576.812 1.447-2.434-.534-2.642-.534-2.642-1.694-.209-3 2.502-3 2.502-1.729-5.051 2.402-4.869 2.402-4.869-.316-5.746 3.817-3.756 3.817-3.756-2.578 2.878-.989 4.312-.989 4.312 1.94 2.438.67 4.805.67 4.805zm15.984 1.833h-6.631-6.628v-1.521c-1.38-1.295 0-2.584 0-2.584v-4.131c-1.321-2.016.549-3.018.549-3.018h.982c2.145-2.108 5.078-.711 5.078-.711v9.676h-5.078v.018h5.116v-.022h-.013l-.019-9.671c.013-.005.024-.006.037-.014v.027s-3.097-1.31-5.121.698c1.912-2.021 5.097-.711 5.097-.711 3.295-1.21 4.521.236 5.125.711-2.313-2.165-5.102-.698-5.102-.698v-.028c3.155-1.336 4.798.43 5.102.725l.003 8.96h-5.108v.022h5.122l-.017-8.982c-.001-.002.001.001 0 0h.958s1.871 1.001.547 3.018v4.131s1.382 1.29 0 2.584v1.521z" fill="none" stroke="#002d73" stroke-width=".392"/><path d="m24.235 19.411c-.112.287-1.04 1.874-4.665 2.811 0 0 3.972-1.031 4.665-2.811" fill="#002d73"/><path d="m24.235 19.411c-.112.287-1.04 1.874-4.665 2.811 0 0 3.972-1.031 4.665-2.811z" fill="none" stroke="#002d73" stroke-linejoin="round" stroke-width=".392"/><path d="m8.961 9.608c-.035-.011-.072-.023-.111-.037-.814-.242-2.571-.584-3.986.32-.07.052-.138.104-.206.161 1.554-1.132 3.506-.695 4.303-.444" fill="#002d73"/><path d="m8.961 9.608c-.035-.011-.072-.023-.111-.037-.814-.242-2.571-.584-3.986.32-.07.052-.138.104-.206.161 1.554-1.132 3.506-.695 4.303-.444z" fill="none" stroke="#002d73" stroke-width=".392"/><path d="m9.581 9.646c-.089.03-.176.054-.268.086.003.004.015.009.015.009s.095-.041.253-.095" fill="#002d73"/><path d="m9.581 9.646c-.089.03-.176.054-.268.086.003.004.015.009.015.009s.095-.041.253-.095z" fill="none" stroke="#002d73" stroke-width=".392"/><path d="m14.38 10.378c-.013-.016-.032-.039-.055-.062-.006-.006-.009-.009-.012-.012-.316-.329-1.348-1.191-3.247-1.004-.407.051-.866.151-1.369.308.864-.272 3.086-.759 4.683.77" fill="#002d73"/><path d="m14.38 10.378c-.013-.016-.032-.039-.055-.062-.006-.006-.009-.009-.012-.012-.316-.329-1.348-1.191-3.247-1.004-.407.051-.866.151-1.369.308.864-.272 3.086-.759 4.683.77z" fill="none" stroke="#002d73" stroke-width=".392"/><path d="m4.189 19.404h.017v-8.914c-.007.006-.012.013-.017.019" fill="#002d73"/><path d="m4.189 19.404h.017v-8.914c-.007.006-.012.013-.017.019z" fill="none" stroke="#002d73" stroke-width=".392"/><path d="m9.324 19.397.005-9.658" fill="#002d73"/><path d="m9.324 19.397.005-9.658z" fill="none" stroke="#002d73" stroke-width=".392"/><path d="m55.876 9.832-.005 9.566" fill="#002d73"/><path d="m55.876 9.832-.005 9.566z" fill="none" stroke="#002d73" stroke-width=".392"/><path d="m50.737 19.404h-.007v-8.966c.019.003.029-.005.024 0" fill="#002d73"/><path d="m50.737 19.404h-.007v-8.966c.019.003.029-.005.024 0z" fill="none" stroke="#002d73" stroke-width=".392"/><path d="m23.765 11.475c11.787-2.917 13.935 6.133 13.935 6.133.224.458.582.678.809 1.025.009-.023.019-.046.025-.071-.217-.332-.561-.537-.774-.966 0 0-2.155-9.086-13.995-6.121" fill="#002d73"/><path d="m23.765 11.475c11.787-2.917 13.935 6.133 13.935 6.133.224.458.582.678.809 1.025.009-.023.019-.046.025-.071-.217-.332-.561-.537-.774-.966 0 0-2.155-9.086-13.995-6.121z" fill="none" stroke="#002d73" stroke-width=".392"/><path d="m26.511 14.962c-.025.014-.012.007 0 0" fill="#004785"/><path d="m26.511 14.962c-.025.014-.012.007 0 0z" fill="none" stroke="#004785" stroke-width=".099"/><path d="m21.877 19.128 1.244-.969-1.087-.253c-.41.251-.489.869-.157 1.222" fill="#002d73"/><path d="m21.877 19.128 1.244-.969-1.087-.253c-.41.251-.489.869-.157 1.222z" fill="none" stroke="#002d73" stroke-width=".099"/><path d="m26.387 18.86c1.335-.557 1.561-1.667 1.57-2.017.024-.812-.28-1.398-.958-1.845-.117-.088-.227-.164-.334-.233.374-.258.781-.568 1.191-.568.508 0 .536.508.938.776.588.374 1.15-.403 1.792-.08.589.293.51 1.123 1.179 1.123 1.606 0 1.66.51 1.66 1.394.911 0 1.124.239 1.338 1.123l.482-.159c-.215-.886-.535-1.5-1.446-1.5 0-.883-.642-1.607-1.607-1.287-.634.214-.588-1.151-1.178-1.446-.641-.318-1.283.698-1.874.324-.403-.269-.531-.869-1.018-1.02-.695-.213-1.98.215-2.141.911l.026.049c-1.633-.684-1.802.871-1.655-.117.092-.63.352-1.797-.464-3.167-.244-.406-.723-.718-.905-1.049 0 0 .535-.824 1.276-1.011.759-.188 1.27-.253 1.734.696.642-.483.845-.836 1.65-.836.493 0 1.033.327 1.194.789 0 0 2.527-1.268 2.662.579l.463-.116c.741-.119 1.758-.393 1.758 1.206l.855-.047c.468.188.75.522.75 1.016.547 0 .95-.146 1.392.162.523.361.482.951.482 1.606.641.133 1.125.603 1.125 1.259v.668c0 .176.267.148.375.269.321.347.293 1.632-.028 2.49l.429.106.321-1.498c-.053-.483-.374-1.099-.695-1.447-.107-.12 0-.909 0-1.177 0-.658-.376-.775-1.016-.911 0-.656-.229-1.352-.75-1.714-.443-.308-.416-.266-.964-.266 0-.497-.515-1.12-1.139-1.167l-.681.148c.066-.803-.688-1.437-1.564-1.445l-.579.214c-.301-.398-.509-.854-1.099-.99-1.124-.261-1.838.475-1.838.475-.256-.37-.477-.878-.972-.878-.802 0-1.001.167-1.644.647-.388-.468-.605-.618-1.222-.618-.528 0-1.251.085-1.716.618l-.61.634c-.019.009-.082.089-.158.199-.274-.502-.326-.678-.326-.678s-.146 1.126-.71 2.066c1.193-1.298 3.55 2.34 1.292 5.035.571-.599 1.813-1.795 2.478-1.563 0 0 .301-.061.654.083 0 0 .314.213.303.218.174.197.112.383.154.97 0 0 1.318-.255 1.111 1.227-.049.339-.231.901-1.614 1.827l1.058.625.971-.682" fill="#002d73"/><path d="m26.387 18.86c1.335-.557 1.561-1.667 1.57-2.017.024-.812-.28-1.398-.958-1.845-.117-.088-.227-.164-.334-.233.374-.258.781-.568 1.191-.568.508 0 .536.508.938.776.588.374 1.15-.403 1.792-.08.589.293.51 1.123 1.179 1.123 1.606 0 1.66.51 1.66 1.394.911 0 1.124.239 1.338 1.123l.482-.159c-.215-.886-.535-1.5-1.446-1.5 0-.883-.642-1.607-1.607-1.287-.634.214-.588-1.151-1.178-1.446-.641-.318-1.283.698-1.874.324-.403-.269-.531-.869-1.018-1.02-.695-.213-1.98.215-2.141.911l.026.049c-1.633-.684-1.802.871-1.655-.117.092-.63.352-1.797-.464-3.167-.244-.406-.723-.718-.905-1.049 0 0 .535-.824 1.276-1.011.759-.188 1.27-.253 1.734.696.642-.483.845-.836 1.65-.836.493 0 1.033.327 1.194.789 0 0 2.527-1.268 2.662.579l.463-.116c.741-.119 1.758-.393 1.758 1.206l.855-.047c.468.188.75.522.75 1.016.547 0 .95-.146 1.392.162.523.361.482.951.482 1.606.641.133 1.125.603 1.125 1.259v.668c0 .176.267.148.375.269.321.347.293 1.632-.028 2.49l.429.106.321-1.498c-.053-.483-.374-1.099-.695-1.447-.107-.12 0-.909 0-1.177 0-.658-.376-.775-1.016-.911 0-.656-.229-1.352-.75-1.714-.443-.308-.416-.266-.964-.266 0-.497-.515-1.12-1.139-1.167l-.681.148c.066-.803-.688-1.437-1.564-1.445l-.579.214c-.301-.398-.509-.854-1.099-.99-1.124-.261-1.838.475-1.838.475-.256-.37-.477-.878-.972-.878-.802 0-1.001.167-1.644.647-.388-.468-.605-.618-1.222-.618-.528 0-1.251.085-1.716.618l-.61.634c-.019.009-.082.089-.158.199-.274-.502-.326-.678-.326-.678s-.146 1.126-.71 2.066c1.193-1.298 3.55 2.34 1.292 5.035.571-.599 1.813-1.795 2.478-1.563 0 0 .301-.061.654.083 0 0 .314.213.303.218.174.197.112.383.154.97 0 0 1.318-.255 1.111 1.227-.049.339-.231.901-1.614 1.827l1.058.625.971-.682z" fill="none" stroke="#002d73" stroke-width=".099"/><path d="m9.409 18.938c1.999-.862 5.084.063 5.084.063l.001.426h-3.385l-1.7.683-1.702-.682h-3.371l.002-.426c0-.001 3.069-.926 5.071-.064" fill="#002d73"/><path d="m9.409 18.938c1.999-.862 5.084.063 5.084.063l.001.426h-3.385l-1.7.683-1.702-.682h-3.371l.002-.426c0-.001 3.069-.926 5.071-.064" fill="none" stroke="#002d73" stroke-width=".099"/><path d="m55.957 18.938c1.999-.862 5.084.063 5.084.063l.001.426h-3.385l-1.701.682-1.703-.682h-3.37v-.426c.001 0 3.072-.925 5.074-.063" fill="#002d73"/><path d="m55.957 18.938c1.999-.862 5.084.063 5.084.063l.001.426h-3.385l-1.701.682-1.703-.682h-3.37v-.426c.001 0 3.072-.925 5.074-.063" fill="none" stroke="#002d73" stroke-width=".099"/></svg>