<?xml version="1.0" encoding="UTF-8"?>
<svg id="Layer_1" xmlns="http://www.w3.org/2000/svg" version="1.1" viewBox="0 0 1205.54 324.33">
  <!-- Generator: Adobe Illustrator 30.1.0, SVG Export Plug-In . SVG Version: 2.1.1 Build 136)  -->
  <defs>
    <style>
      .st0, .st1, .st2, .st3, .st4 {
        isolation: isolate;
      }

      .st1 {
        opacity: .1;
      }

      .st1, .st2, .st3, .st4, .st5 {
        fill: #011f5b;
      }

      .st2 {
        opacity: .25;
      }

      .st3 {
        opacity: .05;
      }

      .st4 {
        opacity: .4;
      }

      .st6 {
        fill: #666;
      }
    </style>
  </defs>
  <g class="st0">
    <g class="st0">
      <g class="st0">
        <path class="st5" d="M114.65,71.14h66.6c29.7,0,43.2,9.9,43.2,31.5,0,5.1-.6,11.4-1.8,17.1l-7.5,34.8c-10.2,46.5-25.5,59.7-69,59.7h-15.6l-12.3,57h-46.2l42.6-200.1ZM151.85,178.24c7.2,0,11.1-4.2,13.2-14.7l10.5-48,.3-3.3c0-3.6-2.4-5.1-9.3-5.1h-13.2l-15.3,71.1h13.8Z"/>
        <path class="st5" d="M251.45,71.14h57c41.1,0,55.8,7.5,55.8,28.5,0,5.4-.9,12.6-2.4,19.2l-5.1,24c-5.7,26.7-15.9,36.9-39.9,40.8l-.3.6c20.7,4.5,26.1,9,26.1,20.7,0,3-.6,7.5-1.5,11.7l-11.4,54.6h-46.5l12.3-57.3c.3-1.2.3-2.1.3-3.3,0-6-5.4-8.4-18.3-8.4h-7.8l-14.7,69h-46.2l42.6-200.1ZM277.25,167.74h8.7c15.6,0,20.1-3.3,23.1-17.4l6.3-30c.3-2.1.6-3.6.6-5.7,0-6.3-3.9-9.3-11.7-9.3h-13.8l-13.2,62.4Z"/>
        <path class="st5" d="M388.85,110.14c6.3-29.7,25.5-41.1,69.3-41.1,36.9,0,51.9,8.4,51.9,29.1,0,4.2-.3,8.1-1.2,12l-26.1,122.1c-6.3,29.7-25.2,41.1-69,41.1-36.9,0-52.2-8.4-52.2-29.1,0-3.3.6-7.8,1.5-12l25.8-122.1ZM460.25,112.54c.3-.9.3-2.1.3-3.6-.3-4.2-3-5.7-10.2-5.7-9.3,0-12.6,2.1-14.1,9.3l-24.9,117.3c-.3,1.2-.3,2.4-.3,3.6,0,4.2,3,5.7,10.8,5.7,8.7,0,12-2.4,13.5-9.3l24.9-117.3Z"/>
        <path class="st5" d="M576.05,115.24h-.6l-30.3,156h-42.6l42.6-200.1h67.5l.9,156,.6-.6,29.7-155.4h42.9l-42.6,200.1h-67.5l-.6-156Z"/>
        <path class="st5" d="M723.65,107.14h-32.4l7.8-36h111l-7.8,36h-32.1l-35.1,164.1h-46.2l34.8-164.1Z"/>
      </g>
    </g>
  </g>
  <g id="l2n1Uf">
    <g>
      <circle class="st6" cx="1163.89" cy="240.14" r="28.5"/>
      <g>
        <path class="st6" d="M1063.32,251.88l-51.31.68c-4.3.06-8.04,2.69-10.12,6.21-2.22,3.76-1.67,8.4.57,11.92,2.37,3.71,6.47,5.04,11.01,5.04l85.51-.08c16.67-.02,33.45-9.09,32.17-28.01-.69-10.21-7.39-18.21-17.4-20.62-5.89-1.42-11.6-1.56-17.81-1.13l-60.1,4.17-9.44.53c1.26,2.41,2.77,4.35,4.04,7.17l-16.1-14.62c-2.68-2.44-5.42-4.68-7.69-7.49l-11.69-14.43c-9.07-11.19-24.71-11.16-32.43-2.22l-48.91,56.62c-5.56,6.44-2.15,16.39,4.46,20.49,8.44,5.24,17.6,2.2,23.7-4.87l34.4-39.82,13.14,21.55,6.25,9.94c1.07-9.73,8.92-15.13,17.86-15.15l26.26-.07,21.48-.19,37.11-2.98c4.74,2.32-35.49,7.37-34.95,7.36h-.01Z"/>
        <path class="st6" d="M854.84,265.7c2.2,5.14,7.29,7.88,12.74,7.81l41.01-.52c-3.94-6.41-4.19-14.59.61-20.24l7.06-8.32-27.51,1.68-23.43,1.55c-4.79.32-8.98,3.82-10.67,8.15-1.22,3.14-1.17,6.74.19,9.9h0Z"/>
        <path class="st6" d="M976.18,271.57l18.45-.3-18.15-28.79c-.15-.23-.7-.69-.92-.76-.28-.1-.85.3-1.13.61l-25.87,29.41,27.62-.17Z"/>
      </g>
    </g>
  </g>
  <path class="st5" d="M849.38,266.72c-1.85-4.31-1.92-9.22-.25-13.5,2.3-5.91,8.02-10.68,14.55-11.11l31.96-2.12,7-.43c.73-2.28,1.37-4.68,1.91-7.22l26.1-122.1c.9-3.9,1.2-7.8,1.2-12,0-20.7-15-29.1-51.9-29.1-43.8,0-63,11.4-69.3,41.1l-25.8,122.1c-.9,4.2-1.5,8.7-1.5,12,0,20.7,15.3,29.1,52.2,29.1,6.57,0,12.57-.26,18.06-.8-1.76-1.59-3.22-3.57-4.23-5.92ZM832.85,233.54c0-1.2,0-2.4.3-3.6l24.9-117.3c1.5-7.2,4.8-9.3,14.1-9.3,7.2,0,9.9,1.5,10.2,5.7,0,1.5,0,2.7-.3,3.6l-24.9,117.3c-1.5,6.9-4.8,9.3-13.5,9.3-7.8,0-10.8-1.5-10.8-5.7h0Z"/>
  <polygon class="st6" points="1104.23 206.8 1077.14 206.8 1077.13 175.71 1045.98 175.69 1045.98 148.63 1077.13 148.63 1077.14 117.53 1104.22 117.53 1104.23 148.63 1135.38 148.63 1135.38 175.7 1104.23 175.7 1104.23 206.8"/>
  <path class="st4" d="M116.06,71.14h-15.13c-14.2,66.7-28.4,133.4-42.59,200.1h15.12c14.2-66.7,28.4-133.4,42.6-200.1h0Z"/>
  <path class="st2" d="M100.91,71.14h-15.13c-14.2,66.7-28.4,133.4-42.59,200.1h15.12c14.2-66.7,28.4-133.4,42.6-200.1h0Z"/>
  <path class="st1" d="M85.76,71.14h-15.13c-14.2,66.7-28.4,133.4-42.59,200.1h15.12c14.2-66.7,28.4-133.4,42.6-200.1h0Z"/>
  <path class="st3" d="M70.61,71.14h-15.13c-14.2,66.7-28.4,133.4-42.59,200.1h15.12c14.2-66.7,28.4-133.4,42.6-200.1h0Z"/>
</svg>